<?xml version="1.0" encoding="UTF-8" standalone="no"?>
<!DOCTYPE svg PUBLIC "-//W3C//DTD SVG 1.1//EN"
 "http://www.w3.org/Graphics/SVG/1.1/DTD/svg11.dtd">
<!-- Generated by graphviz version 8.0.5 (20230430.1635)
 -->
<!-- Pages: 1 -->
<svg width="1339pt" height="1268pt"
 viewBox="0.00 0.00 1339.45 1268.00" xmlns="http://www.w3.org/2000/svg" xmlns:xlink="http://www.w3.org/1999/xlink">
<g id="graph0" class="graph" transform="scale(1 1) rotate(0) translate(4 1264)">
<polygon fill="white" stroke="none" points="-4,4 -4,-1264 1335.45,-1264 1335.45,4 -4,4"/>
<!-- Cyp2c68 -->
<g id="node1" class="node">
<title>Cyp2c68</title>
<ellipse fill="#9ecae1" stroke="black" cx="196.09" cy="-234" rx="44.58" ry="18"/>
<text text-anchor="middle" x="196.09" y="-228.57" font-family="Times New Roman,serif" font-size="14.00">Cyp2c68</text>
</g>
<!-- Atg7KO -->
<g id="node8" class="node">
<title>Atg7KO</title>
<ellipse fill="#ffffb3" stroke="black" cx="412.09" cy="-162" rx="43.84" ry="18"/>
<text text-anchor="middle" x="412.09" y="-157.32" font-family="Calibri-BoldItalic" font-size="14.00">Atg7KO</text>
</g>
<!-- Cyp2c68&#45;&gt;Atg7KO -->
<g id="edge91" class="edge">
<title>Cyp2c68&#45;&gt;Atg7KO</title>
<path fill="none" stroke="black" d="M229.84,-222.06C267.17,-209.96 327.43,-190.43 368.35,-177.17"/>
<polygon fill="black" stroke="black" points="369.14,-180.27 377.57,-173.86 366.98,-173.61 369.14,-180.27"/>
</g>
<!-- Mt3 -->
<g id="node16" class="node">
<title>Mt3</title>
<ellipse fill="#99d8c9" stroke="black" cx="214.09" cy="-162" rx="27" ry="18"/>
<text text-anchor="middle" x="214.09" y="-156.57" font-family="Times New Roman,serif" font-size="14.00">Mt3</text>
</g>
<!-- Cyp2c68&#45;&gt;Mt3 -->
<g id="edge62" class="edge">
<title>Cyp2c68&#45;&gt;Mt3</title>
<path fill="none" stroke="black" d="M200.54,-215.7C202.48,-208.15 204.8,-199.12 206.97,-190.68"/>
<polygon fill="black" stroke="black" points="210.59,-191.66 209.69,-181.1 203.81,-189.92 210.59,-191.66"/>
</g>
<!-- Cyp3a11 -->
<g id="node2" class="node">
<title>Cyp3a11</title>
<ellipse fill="#9ecae1" stroke="black" cx="431.09" cy="-234" rx="44.08" ry="18"/>
<text text-anchor="middle" x="431.09" y="-228.57" font-family="Times New Roman,serif" font-size="14.00">Cyp3a11</text>
</g>
<!-- Cyp3a11&#45;&gt;Atg7KO -->
<g id="edge92" class="edge">
<title>Cyp3a11&#45;&gt;Atg7KO</title>
<path fill="none" stroke="black" d="M426.39,-215.7C424.34,-208.15 421.89,-199.12 419.6,-190.68"/>
<polygon fill="black" stroke="black" points="422.73,-189.84 416.73,-181.1 415.97,-191.67 422.73,-189.84"/>
</g>
<!-- Dgat2 -->
<g id="node3" class="node">
<title>Dgat2</title>
<ellipse fill="#9ecae1" stroke="black" cx="127.09" cy="-450" rx="32.6" ry="18"/>
<text text-anchor="middle" x="127.09" y="-444.57" font-family="Times New Roman,serif" font-size="14.00">Dgat2</text>
</g>
<!-- Dgat2&#45;&gt;Cyp2c68 -->
<g id="edge8" class="edge">
<title>Dgat2&#45;&gt;Cyp2c68</title>
<path fill="none" stroke="black" d="M134.81,-432.34C145.53,-408.69 164.97,-363.8 177.09,-324 183.2,-303.91 188.09,-280.7 191.37,-263.02"/>
<polygon fill="black" stroke="black" points="194.98,-263.74 193.3,-253.28 188.09,-262.51 194.98,-263.74"/>
</g>
<!-- Gabarapl1 -->
<g id="node4" class="node">
<title>Gabarapl1</title>
<ellipse fill="#9ecae1" stroke="black" cx="119.09" cy="-306" rx="49.07" ry="18"/>
<text text-anchor="middle" x="119.09" y="-300.57" font-family="Times New Roman,serif" font-size="14.00">Gabarapl1</text>
</g>
<!-- Dgat2&#45;&gt;Gabarapl1 -->
<g id="edge4" class="edge">
<title>Dgat2&#45;&gt;Gabarapl1</title>
<path fill="none" stroke="black" d="M126.11,-431.59C124.75,-407.5 122.28,-363.75 120.67,-335.03"/>
<polygon fill="black" stroke="black" points="124.11,-334.9 120.05,-325.11 117.12,-335.29 124.11,-334.9"/>
</g>
<!-- Dgat2&#45;&gt;Atg7KO -->
<g id="edge93" class="edge">
<title>Dgat2&#45;&gt;Atg7KO</title>
<path fill="none" stroke="black" d="M140.15,-433.26C169.45,-398.09 239.86,-314.12 266.09,-288 304.82,-249.43 353.77,-209.03 384,-184.94"/>
<polygon fill="black" stroke="black" points="385.71,-187.26 391.38,-178.3 381.36,-181.77 385.71,-187.26"/>
</g>
<!-- Slc39a6 -->
<g id="node18" class="node">
<title>Slc39a6</title>
<ellipse fill="#99d8c9" stroke="black" cx="40.09" cy="-234" rx="40.09" ry="18"/>
<text text-anchor="middle" x="40.09" y="-228.57" font-family="Times New Roman,serif" font-size="14.00">Slc39a6</text>
</g>
<!-- Dgat2&#45;&gt;Slc39a6 -->
<g id="edge64" class="edge">
<title>Dgat2&#45;&gt;Slc39a6</title>
<path fill="none" stroke="black" d="M96.09,-443.88C69.24,-437.62 31.98,-424.16 14.09,-396 -12.34,-354.42 9.17,-294.99 25.66,-261.18"/>
<polygon fill="black" stroke="black" points="29.14,-263.05 30.56,-252.55 22.9,-259.88 29.14,-263.05"/>
</g>
<!-- Hamp2 -->
<g id="node23" class="node">
<title>Hamp2</title>
<ellipse fill="white" stroke="black" cx="61.09" cy="-378" rx="37.59" ry="18"/>
<text text-anchor="middle" x="61.09" y="-372.57" font-family="Times New Roman,serif" font-size="14.00">Hamp2</text>
</g>
<!-- Dgat2&#45;&gt;Hamp2 -->
<g id="edge2" class="edge">
<title>Dgat2&#45;&gt;Hamp2</title>
<path fill="none" stroke="black" d="M112.44,-433.46C103.93,-424.44 93.03,-412.88 83.46,-402.73"/>
<polygon fill="black" stroke="black" points="86.56,-400.85 77.15,-395.98 81.46,-405.65 86.56,-400.85"/>
</g>
<!-- Gabarapl1&#45;&gt;Cyp2c68 -->
<g id="edge9" class="edge">
<title>Gabarapl1&#45;&gt;Cyp2c68</title>
<path fill="none" stroke="black" d="M136.94,-288.76C146.93,-279.69 159.54,-268.22 170.55,-258.21"/>
<polygon fill="black" stroke="black" points="172.54,-261.22 177.59,-251.91 167.84,-256.04 172.54,-261.22"/>
</g>
<!-- Gabarapl1&#45;&gt;Atg7KO -->
<g id="edge94" class="edge">
<title>Gabarapl1&#45;&gt;Atg7KO</title>
<path fill="none" stroke="black" d="M152.94,-292.56C179.67,-282.44 217.73,-267.37 250.09,-252 295.53,-230.42 346.07,-201.89 378.42,-183.02"/>
<polygon fill="black" stroke="black" points="380,-185.57 386.86,-177.49 376.46,-179.53 380,-185.57"/>
</g>
<!-- Gabarapl1&#45;&gt;Slc39a6 -->
<g id="edge65" class="edge">
<title>Gabarapl1&#45;&gt;Slc39a6</title>
<path fill="none" stroke="black" d="M101.16,-289.12C90.68,-279.83 77.28,-267.96 65.71,-257.7"/>
<polygon fill="black" stroke="black" points="68.47,-255.59 58.67,-251.58 63.83,-260.83 68.47,-255.59"/>
</g>
<!-- Scp2 -->
<g id="node5" class="node">
<title>Scp2</title>
<ellipse fill="#9ecae1" stroke="black" cx="875.09" cy="-306" rx="30.11" ry="18"/>
<text text-anchor="middle" x="875.09" y="-300.57" font-family="Times New Roman,serif" font-size="14.00">Scp2</text>
</g>
<!-- Scp2&#45;&gt;Cyp3a11 -->
<g id="edge89" class="edge">
<title>Scp2&#45;&gt;Cyp3a11</title>
<path fill="none" stroke="black" d="M851.21,-294.6C844.78,-292.12 837.75,-289.7 831.09,-288 709.96,-257.04 563.31,-243.49 485.59,-238.12"/>
<polygon fill="black" stroke="black" points="485.85,-234.56 475.64,-237.39 485.38,-241.55 485.85,-234.56"/>
</g>
<!-- Scp2&#45;&gt;Atg7KO -->
<g id="edge95" class="edge">
<title>Scp2&#45;&gt;Atg7KO</title>
<path fill="none" stroke="black" d="M850.54,-295.12C844.24,-292.7 837.44,-290.17 831.09,-288 697.13,-242.22 536,-196.81 458.37,-175.52"/>
<polygon fill="black" stroke="black" points="459.55,-171.94 448.98,-172.68 457.7,-178.69 459.55,-171.94"/>
</g>
<!-- Slc39a9 -->
<g id="node6" class="node">
<title>Slc39a9</title>
<ellipse fill="#fb6a4a" stroke="black" cx="971.09" cy="-90" rx="40.09" ry="18"/>
<text text-anchor="middle" x="971.09" y="-84.58" font-family="Times New Roman,serif" font-size="14.00">Slc39a9</text>
</g>
<!-- Slc39a2 -->
<g id="node17" class="node">
<title>Slc39a2</title>
<ellipse fill="#99d8c9" stroke="black" cx="971.09" cy="-18" rx="40.09" ry="18"/>
<text text-anchor="middle" x="971.09" y="-12.57" font-family="Times New Roman,serif" font-size="14.00">Slc39a2</text>
</g>
<!-- Slc39a9&#45;&gt;Slc39a2 -->
<g id="edge101" class="edge">
<title>Slc39a9&#45;&gt;Slc39a2</title>
<path fill="none" stroke="black" d="M971.09,-71.7C971.09,-64.24 971.09,-55.32 971.09,-46.97"/>
<polygon fill="black" stroke="black" points="974.59,-47.1 971.09,-37.1 967.59,-47.1 974.59,-47.1"/>
</g>
<!-- Akr1c6 -->
<g id="node7" class="node">
<title>Akr1c6</title>
<ellipse fill="#bcbddc" stroke="black" cx="1047.09" cy="-378" rx="38.09" ry="18"/>
<text text-anchor="middle" x="1047.09" y="-372.57" font-family="Times New Roman,serif" font-size="14.00">Akr1c6</text>
</g>
<!-- Akr1c6&#45;&gt;Slc39a9 -->
<g id="edge97" class="edge">
<title>Akr1c6&#45;&gt;Slc39a9</title>
<path fill="none" stroke="black" d="M1042.56,-359.97C1029.89,-312.29 993.99,-177.18 978.43,-118.63"/>
<polygon fill="black" stroke="black" points="981.64,-118.07 975.68,-109.31 974.87,-119.87 981.64,-118.07"/>
</g>
<!-- Atg7KO&#45;&gt;Slc39a9 -->
<g id="edge96" class="edge">
<title>Atg7KO&#45;&gt;Slc39a9</title>
<path fill="none" stroke="black" d="M453.65,-155.8C554.8,-143.13 813.45,-110.74 921.98,-97.15"/>
<polygon fill="black" stroke="black" points="922.13,-100.53 931.62,-95.82 921.26,-93.59 922.13,-100.53"/>
</g>
<!-- Hsd11b1 -->
<g id="node9" class="node">
<title>Hsd11b1</title>
<ellipse fill="#bcbddc" stroke="black" cx="1062.09" cy="-666" rx="44.58" ry="18"/>
<text text-anchor="middle" x="1062.09" y="-660.58" font-family="Times New Roman,serif" font-size="14.00">Hsd11b1</text>
</g>
<!-- Hsd11b1&#45;&gt;Slc39a9 -->
<g id="edge98" class="edge">
<title>Hsd11b1&#45;&gt;Slc39a9</title>
<path fill="none" stroke="black" d="M1052.69,-648.19C1029.44,-604.96 971.09,-485.82 971.09,-379 971.09,-379 971.09,-379 971.09,-233 971.09,-193.57 971.09,-147.97 971.09,-119.31"/>
<polygon fill="black" stroke="black" points="974.59,-119.49 971.09,-109.49 967.59,-119.49 974.59,-119.49"/>
</g>
<!-- Inmt -->
<g id="node32" class="node">
<title>Inmt</title>
<ellipse fill="white" stroke="black" cx="1079.09" cy="-594" rx="27.61" ry="18"/>
<text text-anchor="middle" x="1079.09" y="-588.58" font-family="Times New Roman,serif" font-size="14.00">Inmt</text>
</g>
<!-- Hsd11b1&#45;&gt;Inmt -->
<g id="edge45" class="edge">
<title>Hsd11b1&#45;&gt;Inmt</title>
<path fill="none" stroke="black" d="M1066.29,-647.7C1068.12,-640.15 1070.31,-631.12 1072.36,-622.68"/>
<polygon fill="black" stroke="black" points="1075.97,-623.65 1074.93,-613.1 1069.17,-622 1075.97,-623.65"/>
</g>
<!-- Azgp1 -->
<g id="node34" class="node">
<title>Azgp1</title>
<ellipse fill="white" stroke="black" cx="1173.09" cy="-522" rx="35.1" ry="18"/>
<text text-anchor="middle" x="1173.09" y="-516.58" font-family="Times New Roman,serif" font-size="14.00">Azgp1</text>
</g>
<!-- Hsd11b1&#45;&gt;Azgp1 -->
<g id="edge51" class="edge">
<title>Hsd11b1&#45;&gt;Azgp1</title>
<path fill="none" stroke="black" d="M1080.13,-649.21C1091.14,-639.13 1105.15,-625.46 1116.09,-612 1132.19,-592.17 1147.64,-567.59 1158.38,-549.29"/>
<polygon fill="black" stroke="black" points="1161.87,-551.24 1163.84,-540.83 1155.8,-547.74 1161.87,-551.24"/>
</g>
<!-- Cyp2d11 -->
<g id="node35" class="node">
<title>Cyp2d11</title>
<ellipse fill="white" stroke="black" cx="525.09" cy="-378" rx="45.08" ry="18"/>
<text text-anchor="middle" x="525.09" y="-372.57" font-family="Times New Roman,serif" font-size="14.00">Cyp2d11</text>
</g>
<!-- Hsd11b1&#45;&gt;Cyp2d11 -->
<g id="edge81" class="edge">
<title>Hsd11b1&#45;&gt;Cyp2d11</title>
<path fill="none" stroke="black" d="M1019.58,-660.33C910.67,-647.48 625.83,-607.95 564.09,-540 530.72,-503.28 524.61,-442.95 524.18,-407.49"/>
<polygon fill="black" stroke="black" points="527.68,-407.51 524.22,-397.49 520.68,-407.48 527.68,-407.51"/>
</g>
<!-- Rgn -->
<g id="node10" class="node">
<title>Rgn</title>
<ellipse fill="#bcbddc" stroke="black" cx="807.09" cy="-666" rx="27" ry="18"/>
<text text-anchor="middle" x="807.09" y="-660.58" font-family="Times New Roman,serif" font-size="14.00">Rgn</text>
</g>
<!-- Rgn&#45;&gt;Slc39a9 -->
<g id="edge99" class="edge">
<title>Rgn&#45;&gt;Slc39a9</title>
<path fill="none" stroke="black" d="M822.79,-650.9C856.57,-618.93 933.09,-537.01 933.09,-451 933.09,-451 933.09,-451 933.09,-233 933.09,-191.81 948.19,-146.12 959.35,-117.98"/>
<polygon fill="black" stroke="black" points="962.85,-119.67 963.4,-109.09 956.37,-117.02 962.85,-119.67"/>
</g>
<!-- Rgn&#45;&gt;Inmt -->
<g id="edge46" class="edge">
<title>Rgn&#45;&gt;Inmt</title>
<path fill="none" stroke="black" d="M832.19,-658.54C880.64,-646.07 987.21,-618.64 1043.17,-604.24"/>
<polygon fill="black" stroke="black" points="1043.84,-607.43 1052.65,-601.55 1042.09,-600.65 1043.84,-607.43"/>
</g>
<!-- Ly6d -->
<g id="node36" class="node">
<title>Ly6d</title>
<ellipse fill="white" stroke="black" cx="811.09" cy="-594" rx="30.11" ry="18"/>
<text text-anchor="middle" x="811.09" y="-588.58" font-family="Times New Roman,serif" font-size="14.00">Ly6d</text>
</g>
<!-- Rgn&#45;&gt;Ly6d -->
<g id="edge49" class="edge">
<title>Rgn&#45;&gt;Ly6d</title>
<path fill="none" stroke="black" d="M808.07,-647.7C808.5,-640.24 809.01,-631.32 809.49,-622.97"/>
<polygon fill="black" stroke="black" points="813.03,-623.29 810.11,-613.1 806.04,-622.89 813.03,-623.29"/>
</g>
<!-- Serpina1d -->
<g id="node11" class="node">
<title>Serpina1d</title>
<ellipse fill="#bcbddc" stroke="black" cx="1263.09" cy="-738" rx="48.07" ry="18"/>
<text text-anchor="middle" x="1263.09" y="-732.58" font-family="Times New Roman,serif" font-size="14.00">Serpina1d</text>
</g>
<!-- Serpina1d&#45;&gt;Slc39a9 -->
<g id="edge100" class="edge">
<title>Serpina1d&#45;&gt;Slc39a9</title>
<path fill="none" stroke="black" d="M1271.58,-720.01C1288.56,-684.42 1325.09,-599.01 1325.09,-523 1325.09,-523 1325.09,-523 1325.09,-233 1325.09,-167.72 1115.13,-118.77 1018.6,-99.71"/>
<polygon fill="black" stroke="black" points="1019.45,-96.12 1008.97,-97.64 1018.12,-102.99 1019.45,-96.12"/>
</g>
<!-- Serpina1d&#45;&gt;Hsd11b1 -->
<g id="edge38" class="edge">
<title>Serpina1d&#45;&gt;Hsd11b1</title>
<path fill="none" stroke="black" d="M1228.99,-725.13C1194.79,-713.22 1142.04,-694.84 1105.01,-681.95"/>
<polygon fill="black" stroke="black" points="1106.61,-678.45 1096.01,-678.47 1104.31,-685.06 1106.61,-678.45"/>
</g>
<!-- Taldo1 -->
<g id="node27" class="node">
<title>Taldo1</title>
<ellipse fill="white" stroke="black" cx="1211.09" cy="-450" rx="37.09" ry="18"/>
<text text-anchor="middle" x="1211.09" y="-444.57" font-family="Times New Roman,serif" font-size="14.00">Taldo1</text>
</g>
<!-- Serpina1d&#45;&gt;Taldo1 -->
<g id="edge56" class="edge">
<title>Serpina1d&#45;&gt;Taldo1</title>
<path fill="none" stroke="black" d="M1259.91,-719.54C1251.19,-671.56 1226.79,-537.39 1216.15,-478.88"/>
<polygon fill="black" stroke="black" points="1219.45,-478.44 1214.22,-469.23 1212.56,-479.7 1219.45,-478.44"/>
</g>
<!-- Serpina1d&#45;&gt;Azgp1 -->
<g id="edge53" class="edge">
<title>Serpina1d&#45;&gt;Azgp1</title>
<path fill="none" stroke="black" d="M1253.48,-720.07C1247.82,-709.79 1240.69,-696.31 1235.09,-684 1214.14,-637.95 1193.85,-582.58 1182.46,-550.23"/>
<polygon fill="black" stroke="black" points="1185.55,-549.48 1178.95,-541.19 1178.95,-551.79 1185.55,-549.48"/>
</g>
<!-- Slc39a3 -->
<g id="node12" class="node">
<title>Slc39a3</title>
<ellipse fill="#99d8c9" stroke="black" cx="127.09" cy="-522" rx="40.09" ry="18"/>
<text text-anchor="middle" x="127.09" y="-516.58" font-family="Times New Roman,serif" font-size="14.00">Slc39a3</text>
</g>
<!-- Slc39a3&#45;&gt;Dgat2 -->
<g id="edge1" class="edge">
<title>Slc39a3&#45;&gt;Dgat2</title>
<path fill="none" stroke="black" d="M127.09,-503.7C127.09,-496.24 127.09,-487.32 127.09,-478.97"/>
<polygon fill="black" stroke="black" points="130.59,-479.1 127.09,-469.1 123.59,-479.1 130.59,-479.1"/>
</g>
<!-- Slc39a3&#45;&gt;Gabarapl1 -->
<g id="edge6" class="edge">
<title>Slc39a3&#45;&gt;Gabarapl1</title>
<path fill="none" stroke="black" d="M143.95,-505.6C153.32,-495.86 164.07,-482.41 169.09,-468 174.35,-452.89 172.11,-447.71 169.09,-432 162.28,-396.65 145.57,-358.6 133.33,-333.89"/>
<polygon fill="black" stroke="black" points="136.04,-332.5 128.4,-325.16 129.8,-335.66 136.04,-332.5"/>
</g>
<!-- Slc39a3&#45;&gt;Hamp2 -->
<g id="edge3" class="edge">
<title>Slc39a3&#45;&gt;Hamp2</title>
<path fill="none" stroke="black" d="M111.57,-505.03C102.68,-495.08 91.95,-481.63 85.09,-468 75.35,-448.68 69.21,-424.95 65.57,-406.85"/>
<polygon fill="black" stroke="black" points="68.85,-406.33 63.58,-397.14 61.97,-407.61 68.85,-406.33"/>
</g>
<!-- Slc39a4 -->
<g id="node13" class="node">
<title>Slc39a4</title>
<ellipse fill="#99d8c9" stroke="black" cx="983.09" cy="-1098" rx="40.09" ry="18"/>
<text text-anchor="middle" x="983.09" y="-1092.58" font-family="Times New Roman,serif" font-size="14.00">Slc39a4</text>
</g>
<!-- Slc39a4&#45;&gt;Rgn -->
<g id="edge43" class="edge">
<title>Slc39a4&#45;&gt;Rgn</title>
<path fill="none" stroke="black" d="M970.46,-1080.6C945.96,-1048 891.78,-971.98 862.09,-900 832.91,-829.28 817.26,-739.81 810.76,-695.11"/>
<polygon fill="black" stroke="black" points="814.09,-694.66 809.24,-685.24 807.16,-695.63 814.09,-694.66"/>
</g>
<!-- Adh1 -->
<g id="node24" class="node">
<title>Adh1</title>
<ellipse fill="white" stroke="black" cx="1014.09" cy="-810" rx="31.1" ry="18"/>
<text text-anchor="middle" x="1014.09" y="-804.58" font-family="Times New Roman,serif" font-size="14.00">Adh1</text>
</g>
<!-- Slc39a4&#45;&gt;Adh1 -->
<g id="edge29" class="edge">
<title>Slc39a4&#45;&gt;Adh1</title>
<path fill="none" stroke="black" d="M984.98,-1079.54C990.18,-1031.56 1004.72,-897.39 1011.06,-838.88"/>
<polygon fill="black" stroke="black" points="1014.62,-839.55 1012.22,-829.23 1007.66,-838.8 1014.62,-839.55"/>
</g>
<!-- Cbr3 -->
<g id="node25" class="node">
<title>Cbr3</title>
<ellipse fill="white" stroke="black" cx="1058.09" cy="-738" rx="29.61" ry="18"/>
<text text-anchor="middle" x="1058.09" y="-732.58" font-family="Times New Roman,serif" font-size="14.00">Cbr3</text>
</g>
<!-- Slc39a4&#45;&gt;Cbr3 -->
<g id="edge34" class="edge">
<title>Slc39a4&#45;&gt;Cbr3</title>
<path fill="none" stroke="black" d="M990.56,-1080.05C994.9,-1069.76 1000.25,-1056.28 1004.09,-1044 1033.43,-949.93 1040.71,-925.63 1054.09,-828 1056.85,-807.86 1057.83,-784.94 1058.13,-767.4"/>
<polygon fill="black" stroke="black" points="1061.64,-767.52 1058.24,-757.48 1054.64,-767.44 1061.64,-767.52"/>
</g>
<!-- Pah -->
<g id="node26" class="node">
<title>Pah</title>
<ellipse fill="white" stroke="black" cx="791.09" cy="-954" rx="27" ry="18"/>
<text text-anchor="middle" x="791.09" y="-948.58" font-family="Times New Roman,serif" font-size="14.00">Pah</text>
</g>
<!-- Slc39a4&#45;&gt;Pah -->
<g id="edge20" class="edge">
<title>Slc39a4&#45;&gt;Pah</title>
<path fill="none" stroke="black" d="M950.28,-1087.25C924.81,-1078.61 889.49,-1064.21 863.09,-1044 840,-1026.33 819.79,-999.79 806.7,-980.29"/>
<polygon fill="black" stroke="black" points="809.1,-978.55 800.7,-972.09 803.23,-982.38 809.1,-978.55"/>
</g>
<!-- Slc39a4&#45;&gt;Taldo1 -->
<g id="edge57" class="edge">
<title>Slc39a4&#45;&gt;Taldo1</title>
<path fill="none" stroke="black" d="M1006.42,-1083.05C1071.6,-1042.53 1255.08,-917.36 1320.09,-756 1361.6,-652.95 1274.11,-527.3 1232.02,-475.31"/>
<polygon fill="black" stroke="black" points="1234.26,-473.53 1225.2,-468.04 1228.86,-477.99 1234.26,-473.53"/>
</g>
<!-- Ttr -->
<g id="node28" class="node">
<title>Ttr</title>
<ellipse fill="white" stroke="black" cx="708.09" cy="-1026" rx="27" ry="18"/>
<text text-anchor="middle" x="708.09" y="-1020.58" font-family="Times New Roman,serif" font-size="14.00">Ttr</text>
</g>
<!-- Slc39a4&#45;&gt;Ttr -->
<g id="edge17" class="edge">
<title>Slc39a4&#45;&gt;Ttr</title>
<path fill="none" stroke="black" d="M948.81,-1088.28C896.39,-1074.93 796.79,-1049.58 743.62,-1036.04"/>
<polygon fill="black" stroke="black" points="744.57,-1032.42 734.01,-1033.34 742.84,-1039.2 744.57,-1032.42"/>
</g>
<!-- Uox -->
<g id="node29" class="node">
<title>Uox</title>
<ellipse fill="white" stroke="black" cx="898.09" cy="-882" rx="27" ry="18"/>
<text text-anchor="middle" x="898.09" y="-876.58" font-family="Times New Roman,serif" font-size="14.00">Uox</text>
</g>
<!-- Slc39a4&#45;&gt;Uox -->
<g id="edge25" class="edge">
<title>Slc39a4&#45;&gt;Uox</title>
<path fill="none" stroke="black" d="M978.53,-1079.64C970.39,-1049.64 952.01,-986.46 929.09,-936 924.79,-926.55 919.28,-916.62 914.1,-907.95"/>
<polygon fill="black" stroke="black" points="916.69,-906.47 908.47,-899.78 910.72,-910.13 916.69,-906.47"/>
</g>
<!-- Slc39a4&#45;&gt;Azgp1 -->
<g id="edge54" class="edge">
<title>Slc39a4&#45;&gt;Azgp1</title>
<path fill="none" stroke="black" d="M997.73,-1080.86C1006.15,-1070.85 1016.36,-1057.39 1023.09,-1044 1038.04,-1014.21 1034.82,-1004.02 1044.09,-972 1090.33,-812.27 1145.24,-620.39 1165.28,-550.31"/>
<polygon fill="black" stroke="black" points="1168.81,-551.71 1168.19,-541.14 1162.08,-549.79 1168.81,-551.71"/>
</g>
<!-- Slc39a11 -->
<g id="node14" class="node">
<title>Slc39a11</title>
<ellipse fill="#99d8c9" stroke="black" cx="892.09" cy="-1242" rx="44.58" ry="18"/>
<text text-anchor="middle" x="892.09" y="-1236.58" font-family="Times New Roman,serif" font-size="14.00">Slc39a11</text>
</g>
<!-- Slc39a11&#45;&gt;Serpina1d -->
<g id="edge36" class="edge">
<title>Slc39a11&#45;&gt;Serpina1d</title>
<path fill="none" stroke="black" d="M936.8,-1239.68C1018.83,-1236.37 1189.04,-1225.1 1233.09,-1188 1265.01,-1161.11 1263.09,-1140.74 1263.09,-1099 1263.09,-1099 1263.09,-1099 1263.09,-881 1263.09,-841.57 1263.09,-795.97 1263.09,-767.31"/>
<polygon fill="black" stroke="black" points="1266.59,-767.49 1263.09,-757.49 1259.59,-767.49 1266.59,-767.49"/>
</g>
<!-- Slc39a11&#45;&gt;Slc39a4 -->
<g id="edge13" class="edge">
<title>Slc39a11&#45;&gt;Slc39a4</title>
<path fill="none" stroke="black" d="M902.88,-1224.15C918.62,-1199.6 947.99,-1153.77 966.48,-1124.91"/>
<polygon fill="black" stroke="black" points="969.85,-1127.13 972.3,-1116.82 963.96,-1123.36 969.85,-1127.13"/>
</g>
<!-- Slc39a11&#45;&gt;Adh1 -->
<g id="edge28" class="edge">
<title>Slc39a11&#45;&gt;Adh1</title>
<path fill="none" stroke="black" d="M918.27,-1227.01C951.92,-1207.35 1008.78,-1168.04 1032.09,-1116 1074.47,-1021.34 1041.61,-893.35 1023.72,-838.17"/>
<polygon fill="black" stroke="black" points="1026.75,-837.21 1020.26,-828.84 1020.12,-839.43 1026.75,-837.21"/>
</g>
<!-- Slc39a11&#45;&gt;Cbr3 -->
<g id="edge33" class="edge">
<title>Slc39a11&#45;&gt;Cbr3</title>
<path fill="none" stroke="black" d="M927.19,-1230.52C951.38,-1221.98 983.17,-1208.05 1006.09,-1188 1034.67,-1163 1038.23,-1151.35 1052.09,-1116 1098.88,-996.62 1067.9,-956.22 1069.09,-828 1069.23,-812 1070.72,-807.92 1069.09,-792 1068.23,-783.64 1066.63,-774.66 1064.91,-766.51"/>
<polygon fill="black" stroke="black" points="1068.16,-766.03 1062.55,-757.05 1061.34,-767.57 1068.16,-766.03"/>
</g>
<!-- Slc39a11&#45;&gt;Pah -->
<g id="edge19" class="edge">
<title>Slc39a11&#45;&gt;Pah</title>
<path fill="none" stroke="black" d="M886.07,-1223.97C869.19,-1176.18 821.3,-1040.54 800.7,-982.22"/>
<polygon fill="black" stroke="black" points="803.7,-981.21 797.07,-972.94 797.1,-983.54 803.7,-981.21"/>
</g>
<!-- Slc39a11&#45;&gt;Ttr -->
<g id="edge16" class="edge">
<title>Slc39a11&#45;&gt;Ttr</title>
<path fill="none" stroke="black" d="M850.78,-1234.93C801.98,-1226.82 725.23,-1210.78 708.09,-1188 678.81,-1149.11 689.37,-1088.62 699.11,-1053.92"/>
<polygon fill="black" stroke="black" points="702.68,-1055.2 702.19,-1044.62 695.97,-1053.2 702.68,-1055.2"/>
</g>
<!-- Cyp2d10 -->
<g id="node30" class="node">
<title>Cyp2d10</title>
<ellipse fill="white" stroke="black" cx="320.09" cy="-306" rx="45.08" ry="18"/>
<text text-anchor="middle" x="320.09" y="-300.57" font-family="Times New Roman,serif" font-size="14.00">Cyp2d10</text>
</g>
<!-- Slc39a11&#45;&gt;Cyp2d10 -->
<g id="edge85" class="edge">
<title>Slc39a11&#45;&gt;Cyp2d10</title>
<path fill="none" stroke="black" d="M847.51,-1240.21C706.44,-1236.53 279.09,-1215.75 279.09,-1099 279.09,-1099 279.09,-1099 279.09,-449 279.09,-407.59 295.38,-361.96 307.42,-333.88"/>
<polygon fill="black" stroke="black" points="310.94,-335.59 311.79,-325.03 304.54,-332.75 310.94,-335.59"/>
</g>
<!-- Gstm2 -->
<g id="node31" class="node">
<title>Gstm2</title>
<ellipse fill="white" stroke="black" cx="619.09" cy="-1098" rx="35.6" ry="18"/>
<text text-anchor="middle" x="619.09" y="-1092.58" font-family="Times New Roman,serif" font-size="14.00">Gstm2</text>
</g>
<!-- Slc39a11&#45;&gt;Gstm2 -->
<g id="edge11" class="edge">
<title>Slc39a11&#45;&gt;Gstm2</title>
<path fill="none" stroke="black" d="M847.63,-1240.06C800.18,-1236.97 724.87,-1225.87 673.09,-1188 652.06,-1172.63 637.6,-1146.36 628.97,-1126.34"/>
<polygon fill="black" stroke="black" points="631.88,-1125.2 624.88,-1117.24 625.39,-1127.83 631.88,-1125.2"/>
</g>
<!-- Slc39a11&#45;&gt;Inmt -->
<g id="edge47" class="edge">
<title>Slc39a11&#45;&gt;Inmt</title>
<path fill="none" stroke="black" d="M932.9,-1234.19C964.01,-1227.19 1006.26,-1213.56 1035.09,-1188 1084.47,-1144.2 1187.09,-1037.32 1187.09,-883 1187.09,-883 1187.09,-883 1187.09,-809 1187.09,-732.52 1131.43,-655.57 1100.03,-618.23"/>
<polygon fill="black" stroke="black" points="1102.16,-616.34 1092.98,-611.04 1096.85,-620.9 1102.16,-616.34"/>
</g>
<!-- Slpi -->
<g id="node33" class="node">
<title>Slpi</title>
<ellipse fill="white" stroke="black" cx="744.09" cy="-1170" rx="27" ry="18"/>
<text text-anchor="middle" x="744.09" y="-1164.58" font-family="Times New Roman,serif" font-size="14.00">Slpi</text>
</g>
<!-- Slc39a11&#45;&gt;Slpi -->
<g id="edge7" class="edge">
<title>Slc39a11&#45;&gt;Slpi</title>
<path fill="none" stroke="black" d="M863.9,-1227.67C838.58,-1215.69 801.46,-1198.13 775.26,-1185.74"/>
<polygon fill="black" stroke="black" points="776.99,-1182.22 766.45,-1181.11 774,-1188.55 776.99,-1182.22"/>
</g>
<!-- Slc39a14 -->
<g id="node15" class="node">
<title>Slc39a14</title>
<ellipse fill="#99d8c9" stroke="black" cx="466.09" cy="-594" rx="44.58" ry="18"/>
<text text-anchor="middle" x="466.09" y="-588.58" font-family="Times New Roman,serif" font-size="14.00">Slc39a14</text>
</g>
<!-- Mt4 -->
<g id="node19" class="node">
<title>Mt4</title>
<ellipse fill="#99d8c9" stroke="black" cx="311.09" cy="-90" rx="27" ry="18"/>
<text text-anchor="middle" x="311.09" y="-84.58" font-family="Times New Roman,serif" font-size="14.00">Mt4</text>
</g>
<!-- Slc39a14&#45;&gt;Mt4 -->
<g id="edge68" class="edge">
<title>Slc39a14&#45;&gt;Mt4</title>
<path fill="none" stroke="black" d="M461,-575.77C447.24,-529.27 408.05,-397.33 374.09,-288 355.23,-227.3 332.32,-156.35 319.99,-118.35"/>
<polygon fill="black" stroke="black" points="323.08,-117.53 316.66,-109.1 316.42,-119.69 323.08,-117.53"/>
</g>
<!-- Slc39a14&#45;&gt;Cyp2d11 -->
<g id="edge82" class="edge">
<title>Slc39a14&#45;&gt;Cyp2d11</title>
<path fill="none" stroke="black" d="M470.81,-575.85C481,-538.91 505.08,-451.55 517.46,-406.67"/>
<polygon fill="black" stroke="black" points="521.05,-407.8 520.33,-397.23 514.3,-405.94 521.05,-407.8"/>
</g>
<!-- Ndor1 -->
<g id="node38" class="node">
<title>Ndor1</title>
<ellipse fill="white" stroke="black" cx="608.09" cy="-522" rx="34.6" ry="18"/>
<text text-anchor="middle" x="608.09" y="-516.58" font-family="Times New Roman,serif" font-size="14.00">Ndor1</text>
</g>
<!-- Slc39a14&#45;&gt;Ndor1 -->
<g id="edge70" class="edge">
<title>Slc39a14&#45;&gt;Ndor1</title>
<path fill="none" stroke="black" d="M493.47,-579.5C516.42,-568.19 549.29,-551.98 573.96,-539.82"/>
<polygon fill="black" stroke="black" points="575.21,-542.61 582.63,-535.05 572.12,-536.34 575.21,-542.61"/>
</g>
<!-- Mt3&#45;&gt;Mt4 -->
<g id="edge67" class="edge">
<title>Mt3&#45;&gt;Mt4</title>
<path fill="none" stroke="black" d="M231.88,-148.16C246.64,-137.5 267.86,-122.19 284.62,-110.1"/>
<polygon fill="black" stroke="black" points="286.35,-112.45 292.41,-103.76 282.25,-106.77 286.35,-112.45"/>
</g>
<!-- Fmo3 -->
<g id="node41" class="node">
<title>Fmo3</title>
<ellipse fill="white" stroke="black" cx="214.09" cy="-90" rx="32.6" ry="18"/>
<text text-anchor="middle" x="214.09" y="-84.58" font-family="Times New Roman,serif" font-size="14.00">Fmo3</text>
</g>
<!-- Mt3&#45;&gt;Fmo3 -->
<g id="edge63" class="edge">
<title>Mt3&#45;&gt;Fmo3</title>
<path fill="none" stroke="black" d="M214.09,-143.7C214.09,-136.24 214.09,-127.32 214.09,-118.97"/>
<polygon fill="black" stroke="black" points="217.59,-119.1 214.09,-109.1 210.59,-119.1 217.59,-119.1"/>
</g>
<!-- Slc39a1 -->
<g id="node20" class="node">
<title>Slc39a1</title>
<ellipse fill="#99d8c9" stroke="black" cx="781.09" cy="-378" rx="40.09" ry="18"/>
<text text-anchor="middle" x="781.09" y="-372.57" font-family="Times New Roman,serif" font-size="14.00">Slc39a1</text>
</g>
<!-- Slc30a5 -->
<g id="node21" class="node">
<title>Slc30a5</title>
<ellipse fill="#99d8c9" stroke="black" cx="707.09" cy="-450" rx="40.09" ry="18"/>
<text text-anchor="middle" x="707.09" y="-444.57" font-family="Times New Roman,serif" font-size="14.00">Slc30a5</text>
</g>
<!-- Slc39a5 -->
<g id="node22" class="node">
<title>Slc39a5</title>
<ellipse fill="#99d8c9" stroke="black" cx="214.09" cy="-18" rx="40.09" ry="18"/>
<text text-anchor="middle" x="214.09" y="-12.57" font-family="Times New Roman,serif" font-size="14.00">Slc39a5</text>
</g>
<!-- Hamp2&#45;&gt;Cyp2c68 -->
<g id="edge10" class="edge">
<title>Hamp2&#45;&gt;Cyp2c68</title>
<path fill="none" stroke="black" d="M55.82,-359.94C50.98,-340.7 46.55,-309.32 61.09,-288 79.34,-261.23 113.36,-247.98 142.68,-241.42"/>
<polygon fill="black" stroke="black" points="143.12,-244.7 152.23,-239.3 141.73,-237.84 143.12,-244.7"/>
</g>
<!-- Hamp2&#45;&gt;Gabarapl1 -->
<g id="edge5" class="edge">
<title>Hamp2&#45;&gt;Gabarapl1</title>
<path fill="none" stroke="black" d="M74.54,-360.76C81.61,-352.23 90.43,-341.58 98.36,-332.02"/>
<polygon fill="black" stroke="black" points="101.62,-334.57 105.3,-324.63 96.23,-330.1 101.62,-334.57"/>
</g>
<!-- Adh1&#45;&gt;Serpina1d -->
<g id="edge35" class="edge">
<title>Adh1&#45;&gt;Serpina1d</title>
<path fill="none" stroke="black" d="M1041.68,-801.24C1083.53,-789.48 1163.6,-766.97 1215.12,-752.49"/>
<polygon fill="black" stroke="black" points="1215.97,-755.6 1224.65,-749.52 1214.08,-748.86 1215.97,-755.6"/>
</g>
<!-- Adh1&#45;&gt;Cbr3 -->
<g id="edge31" class="edge">
<title>Adh1&#45;&gt;Cbr3</title>
<path fill="none" stroke="black" d="M1024.29,-792.76C1029.62,-784.28 1036.27,-773.71 1042.25,-764.2"/>
<polygon fill="black" stroke="black" points="1045.58,-766.48 1047.94,-756.15 1039.65,-762.75 1045.58,-766.48"/>
</g>
<!-- Adh1&#45;&gt;Ly6d -->
<g id="edge48" class="edge">
<title>Adh1&#45;&gt;Ly6d</title>
<path fill="none" stroke="black" d="M999.49,-793.61C964.3,-756.52 874.64,-662 832.98,-618.08"/>
<polygon fill="black" stroke="black" points="835.97,-616.1 826.55,-611.25 830.9,-620.91 835.97,-616.1"/>
</g>
<!-- Cbr3&#45;&gt;Hsd11b1 -->
<g id="edge37" class="edge">
<title>Cbr3&#45;&gt;Hsd11b1</title>
<path fill="none" stroke="black" d="M1059.07,-719.7C1059.5,-712.24 1060.01,-703.32 1060.49,-694.97"/>
<polygon fill="black" stroke="black" points="1064.03,-695.29 1061.11,-685.1 1057.04,-694.89 1064.03,-695.29"/>
</g>
<!-- Cbr3&#45;&gt;Rgn -->
<g id="edge40" class="edge">
<title>Cbr3&#45;&gt;Rgn</title>
<path fill="none" stroke="black" d="M1031.7,-729.64C986.2,-716.95 892.99,-690.96 842.11,-676.77"/>
<polygon fill="black" stroke="black" points="843.21,-673.16 832.64,-673.85 841.33,-679.9 843.21,-673.16"/>
</g>
<!-- Pah&#45;&gt;Rgn -->
<g id="edge42" class="edge">
<title>Pah&#45;&gt;Rgn</title>
<path fill="none" stroke="black" d="M788.91,-935.6C784.5,-896.65 775.93,-799.62 789.09,-720 790.52,-711.33 793.18,-702.18 796.03,-693.96"/>
<polygon fill="black" stroke="black" points="799.6,-695.41 799.79,-684.82 793.03,-692.98 799.6,-695.41"/>
</g>
<!-- Pah&#45;&gt;Adh1 -->
<g id="edge27" class="edge">
<title>Pah&#45;&gt;Adh1</title>
<path fill="none" stroke="black" d="M816.58,-947.51C846.61,-940.19 897.07,-925.15 934.09,-900 959.45,-882.76 982.17,-855.81 996.85,-836.08"/>
<polygon fill="black" stroke="black" points="1000.17,-838.47 1003.2,-828.32 994.5,-834.36 1000.17,-838.47"/>
</g>
<!-- Pah&#45;&gt;Uox -->
<g id="edge24" class="edge">
<title>Pah&#45;&gt;Uox</title>
<path fill="none" stroke="black" d="M809.72,-940.81C826.42,-929.88 851.15,-913.71 870.2,-901.24"/>
<polygon fill="black" stroke="black" points="871.85,-903.69 878.3,-895.29 868.02,-897.83 871.85,-903.69"/>
</g>
<!-- Gm13202 -->
<g id="node40" class="node">
<title>Gm13202</title>
<ellipse fill="white" stroke="black" cx="652.09" cy="-810" rx="47.07" ry="18"/>
<text text-anchor="middle" x="652.09" y="-804.58" font-family="Times New Roman,serif" font-size="14.00">Gm13202</text>
</g>
<!-- Pah&#45;&gt;Gm13202 -->
<g id="edge74" class="edge">
<title>Pah&#45;&gt;Gm13202</title>
<path fill="none" stroke="black" d="M776.73,-938.34C752.77,-913.85 704.38,-864.43 675.45,-834.87"/>
<polygon fill="black" stroke="black" points="678.34,-832.79 668.84,-828.1 673.34,-837.69 678.34,-832.79"/>
</g>
<!-- Taldo1&#45;&gt;Akr1c6 -->
<g id="edge60" class="edge">
<title>Taldo1&#45;&gt;Akr1c6</title>
<path fill="none" stroke="black" d="M1184,-437.44C1156.87,-425.86 1114.88,-407.94 1084.55,-394.99"/>
<polygon fill="black" stroke="black" points="1086.33,-391.52 1075.76,-390.81 1083.58,-397.95 1086.33,-391.52"/>
</g>
<!-- Ttr&#45;&gt;Rgn -->
<g id="edge44" class="edge">
<title>Ttr&#45;&gt;Rgn</title>
<path fill="none" stroke="black" d="M711.84,-1008.05C717.38,-981.52 727.09,-928.52 727.09,-883 727.09,-883 727.09,-883 727.09,-809 727.09,-761.51 761.47,-715.25 785.16,-689.03"/>
<polygon fill="black" stroke="black" points="787.16,-691.94 791.41,-682.24 782.03,-687.17 787.16,-691.94"/>
</g>
<!-- Ttr&#45;&gt;Pah -->
<g id="edge22" class="edge">
<title>Ttr&#45;&gt;Pah</title>
<path fill="none" stroke="black" d="M724.48,-1011.17C736.42,-1001.1 752.79,-987.29 766.32,-975.89"/>
<polygon fill="black" stroke="black" points="768.33,-977.92 773.72,-968.8 763.82,-972.57 768.33,-977.92"/>
</g>
<!-- Uox&#45;&gt;Akr1c6 -->
<g id="edge61" class="edge">
<title>Uox&#45;&gt;Akr1c6</title>
<path fill="none" stroke="black" d="M903.13,-864.01C924.99,-790.35 1011.69,-498.24 1038.89,-406.63"/>
<polygon fill="black" stroke="black" points="1042.48,-407.83 1041.97,-397.24 1035.77,-405.83 1042.48,-407.83"/>
</g>
<!-- Uox&#45;&gt;Hsd11b1 -->
<g id="edge39" class="edge">
<title>Uox&#45;&gt;Hsd11b1</title>
<path fill="none" stroke="black" d="M909.58,-865.31C930.86,-836.35 977.98,-772.63 1019.09,-720 1026.31,-710.76 1034.37,-700.73 1041.55,-691.92"/>
<polygon fill="black" stroke="black" points="1044.75,-694.54 1048.37,-684.58 1039.33,-690.11 1044.75,-694.54"/>
</g>
<!-- Uox&#45;&gt;Adh1 -->
<g id="edge30" class="edge">
<title>Uox&#45;&gt;Adh1</title>
<path fill="none" stroke="black" d="M917.76,-869.13C935.84,-858.22 962.92,-841.88 983.76,-829.3"/>
<polygon fill="black" stroke="black" points="985.38,-831.81 992.13,-823.64 981.76,-825.81 985.38,-831.81"/>
</g>
<!-- Uox&#45;&gt;Ly6d -->
<g id="edge50" class="edge">
<title>Uox&#45;&gt;Ly6d</title>
<path fill="none" stroke="black" d="M884.14,-866.22C856.09,-835.34 793.61,-760.51 771.09,-684 766.57,-668.65 766,-663.17 771.09,-648 774.77,-637.01 781.72,-626.49 788.81,-617.75"/>
<polygon fill="black" stroke="black" points="791.92,-620.51 795.83,-610.66 786.64,-615.92 791.92,-620.51"/>
</g>
<!-- Cyp2d10&#45;&gt;Cyp3a11 -->
<g id="edge87" class="edge">
<title>Cyp2d10&#45;&gt;Cyp3a11</title>
<path fill="none" stroke="black" d="M343.36,-290.33C359.49,-280.15 381.18,-266.47 398.96,-255.26"/>
<polygon fill="black" stroke="black" points="400.26,-257.95 406.85,-249.65 396.52,-252.03 400.26,-257.95"/>
</g>
<!-- Gstm2&#45;&gt;Rgn -->
<g id="edge41" class="edge">
<title>Gstm2&#45;&gt;Rgn</title>
<path fill="none" stroke="black" d="M610.79,-1080.42C598.55,-1054.39 577.09,-1002.05 577.09,-955 577.09,-955 577.09,-955 577.09,-809 577.09,-719.39 705.05,-684.46 770.08,-672.49"/>
<polygon fill="black" stroke="black" points="770.45,-675.8 779.7,-670.64 769.25,-668.91 770.45,-675.8"/>
</g>
<!-- Gstm2&#45;&gt;Cbr3 -->
<g id="edge32" class="edge">
<title>Gstm2&#45;&gt;Cbr3</title>
<path fill="none" stroke="black" d="M621.58,-1079.86C624.75,-1061.37 631.28,-1031.44 643.09,-1008 661.44,-971.55 668.93,-962.36 700.09,-936 804.97,-847.28 956.01,-780.06 1023.38,-752.58"/>
<polygon fill="black" stroke="black" points="1024.49,-755.5 1032.45,-748.51 1021.87,-749.01 1024.49,-755.5"/>
</g>
<!-- Gstm2&#45;&gt;Ttr -->
<g id="edge15" class="edge">
<title>Gstm2&#45;&gt;Ttr</title>
<path fill="none" stroke="black" d="M637.53,-1082.5C650.6,-1072.22 668.3,-1058.29 682.7,-1046.96"/>
<polygon fill="black" stroke="black" points="684.48,-1049.23 690.17,-1040.3 680.15,-1043.73 684.48,-1049.23"/>
</g>
<!-- Gstm2&#45;&gt;Uox -->
<g id="edge23" class="edge">
<title>Gstm2&#45;&gt;Uox</title>
<path fill="none" stroke="black" d="M627.03,-1080.22C636.33,-1061.52 652.93,-1030.9 672.09,-1008 703.42,-970.55 713.07,-960.89 755.09,-936 789.37,-915.69 832.78,-900.94 862.72,-892.24"/>
<polygon fill="black" stroke="black" points="863.43,-895.39 872.1,-889.3 861.53,-888.65 863.43,-895.39"/>
</g>
<!-- Gstm2&#45;&gt;Cyp2d10 -->
<g id="edge84" class="edge">
<title>Gstm2&#45;&gt;Cyp2d10</title>
<path fill="none" stroke="black" d="M586.48,-1090.26C508.39,-1072 317.09,-1013.93 317.09,-883 317.09,-883 317.09,-883 317.09,-449 317.09,-409.56 318.26,-363.96 319.14,-335.31"/>
<polygon fill="black" stroke="black" points="322.66,-335.59 319.48,-325.49 315.66,-335.37 322.66,-335.59"/>
</g>
<!-- COX3 -->
<g id="node39" class="node">
<title>COX3</title>
<ellipse fill="white" stroke="black" cx="608.09" cy="-450" rx="35.1" ry="18"/>
<text text-anchor="middle" x="608.09" y="-444.57" font-family="Times New Roman,serif" font-size="14.00">COX3</text>
</g>
<!-- Gstm2&#45;&gt;COX3 -->
<g id="edge71" class="edge">
<title>Gstm2&#45;&gt;COX3</title>
<path fill="none" stroke="black" d="M603.28,-1081.58C579.97,-1057.09 539.09,-1006.78 539.09,-955 539.09,-955 539.09,-955 539.09,-665 539.09,-592.59 534.33,-570.02 564.09,-504 568.95,-493.21 576.63,-482.83 584.23,-474.17"/>
<polygon fill="black" stroke="black" points="586.45,-476.84 590.68,-467.13 581.32,-472.08 586.45,-476.84"/>
</g>
<!-- Inmt&#45;&gt;Akr1c6 -->
<g id="edge58" class="edge">
<title>Inmt&#45;&gt;Akr1c6</title>
<path fill="none" stroke="black" d="M1078.01,-575.96C1075.95,-546.44 1070.8,-483.98 1061.09,-432 1059.52,-423.64 1057.35,-414.66 1055.17,-406.5"/>
<polygon fill="black" stroke="black" points="1058.32,-405.74 1052.27,-397.04 1051.57,-407.61 1058.32,-405.74"/>
</g>
<!-- Inmt&#45;&gt;Azgp1 -->
<g id="edge52" class="edge">
<title>Inmt&#45;&gt;Azgp1</title>
<path fill="none" stroke="black" d="M1096.77,-579.83C1110.37,-569.7 1129.43,-555.51 1145.1,-543.84"/>
<polygon fill="black" stroke="black" points="1146.94,-546.09 1152.87,-537.31 1142.76,-540.48 1146.94,-546.09"/>
</g>
<!-- Slpi&#45;&gt;Cyp3a11 -->
<g id="edge90" class="edge">
<title>Slpi&#45;&gt;Cyp3a11</title>
<path fill="none" stroke="black" d="M717.99,-1164.31C636.65,-1148.94 393.09,-1097.09 393.09,-1027 393.09,-1027 393.09,-1027 393.09,-593 393.09,-469.4 415.76,-323.13 426.08,-262.97"/>
<polygon fill="black" stroke="black" points="429.65,-263.89 427.91,-253.44 422.75,-262.69 429.65,-263.89"/>
</g>
<!-- Slpi&#45;&gt;Slc39a4 -->
<g id="edge14" class="edge">
<title>Slpi&#45;&gt;Slc39a4</title>
<path fill="none" stroke="black" d="M768.68,-1162.17C804.19,-1152.27 871.81,-1133.22 929.09,-1116 932.89,-1114.86 936.83,-1113.65 940.78,-1112.43"/>
<polygon fill="black" stroke="black" points="941.64,-1115.52 950.15,-1109.21 939.56,-1108.84 941.64,-1115.52"/>
</g>
<!-- Slpi&#45;&gt;Pah -->
<g id="edge21" class="edge">
<title>Slpi&#45;&gt;Pah</title>
<path fill="none" stroke="black" d="M747.85,-1151.85C755.95,-1114.99 775.07,-1027.92 784.95,-982.96"/>
<polygon fill="black" stroke="black" points="788.57,-983.75 787.3,-973.23 781.74,-982.25 788.57,-983.75"/>
</g>
<!-- Slpi&#45;&gt;Ttr -->
<g id="edge18" class="edge">
<title>Slpi&#45;&gt;Ttr</title>
<path fill="none" stroke="black" d="M739.74,-1151.87C733.64,-1127.78 722.44,-1083.6 715.13,-1054.77"/>
<polygon fill="black" stroke="black" points="718.29,-1054.02 712.44,-1045.19 711.51,-1055.74 718.29,-1054.02"/>
</g>
<!-- Slpi&#45;&gt;Uox -->
<g id="edge26" class="edge">
<title>Slpi&#45;&gt;Uox</title>
<path fill="none" stroke="black" d="M753.01,-1152.78C758.76,-1142.3 766.39,-1128.36 773.09,-1116 813.69,-1041.05 861.16,-952.24 884.17,-909.11"/>
<polygon fill="black" stroke="black" points="887.72,-910.88 889.34,-900.41 881.55,-907.59 887.72,-910.88"/>
</g>
<!-- Slpi&#45;&gt;Cyp2d10 -->
<g id="edge86" class="edge">
<title>Slpi&#45;&gt;Cyp2d10</title>
<path fill="none" stroke="black" d="M716.65,-1169.18C639.89,-1169.07 425.46,-1164.35 379.09,-1116 307.02,-1040.87 355.09,-987.1 355.09,-883 355.09,-883 355.09,-883 355.09,-449 355.09,-408.2 341.3,-362.68 331.03,-334.44"/>
<polygon fill="black" stroke="black" points="333.96,-333.28 327.17,-325.15 327.41,-335.74 333.96,-333.28"/>
</g>
<!-- Slpi&#45;&gt;Gstm2 -->
<g id="edge12" class="edge">
<title>Slpi&#45;&gt;Gstm2</title>
<path fill="none" stroke="black" d="M723.72,-1157.6C704.23,-1146.68 674.51,-1130.04 651.71,-1117.27"/>
<polygon fill="black" stroke="black" points="653.85,-1113.9 643.42,-1112.07 650.43,-1120.01 653.85,-1113.9"/>
</g>
<!-- Azgp1&#45;&gt;Taldo1 -->
<g id="edge55" class="edge">
<title>Azgp1&#45;&gt;Taldo1</title>
<path fill="none" stroke="black" d="M1182.09,-504.41C1186.54,-496.22 1192.01,-486.14 1197,-476.95"/>
<polygon fill="black" stroke="black" points="1200.45,-478.93 1202.15,-468.47 1194.3,-475.59 1200.45,-478.93"/>
</g>
<!-- Cyp2d11&#45;&gt;Cyp2d10 -->
<g id="edge83" class="edge">
<title>Cyp2d11&#45;&gt;Cyp2d10</title>
<path fill="none" stroke="black" d="M491.69,-365.6C456.85,-353.7 402.06,-334.99 363.79,-321.92"/>
<polygon fill="black" stroke="black" points="365.06,-318.32 354.46,-318.4 362.8,-324.94 365.06,-318.32"/>
</g>
<!-- Ly6d&#45;&gt;Cyp3a11 -->
<g id="edge88" class="edge">
<title>Ly6d&#45;&gt;Cyp3a11</title>
<path fill="none" stroke="black" d="M819.19,-576.32C837.93,-535.06 879.1,-426.72 830.09,-360 788.35,-303.19 580.29,-260.63 482.29,-243.4"/>
<polygon fill="black" stroke="black" points="483.2,-239.83 472.75,-241.57 482,-246.73 483.2,-239.83"/>
</g>
<!-- Ly6d&#45;&gt;Akr1c6 -->
<g id="edge59" class="edge">
<title>Ly6d&#45;&gt;Akr1c6</title>
<path fill="none" stroke="black" d="M827.45,-578.68C839.55,-568.06 856.41,-553.19 871.09,-540 925.6,-491 988.87,-432.79 1022.72,-401.53"/>
<polygon fill="black" stroke="black" points="1024.7,-404.55 1029.67,-395.19 1019.95,-399.4 1024.7,-404.55"/>
</g>
<!-- Ly6d&#45;&gt;Slc39a1 -->
<g id="edge77" class="edge">
<title>Ly6d&#45;&gt;Slc39a1</title>
<path fill="none" stroke="black" d="M810.29,-575.96C808.7,-546.44 804.47,-483.97 795.09,-432 793.57,-423.63 791.41,-414.64 789.24,-406.49"/>
<polygon fill="black" stroke="black" points="792.38,-405.73 786.32,-397.03 785.63,-407.6 792.38,-405.73"/>
</g>
<!-- Ly6d&#45;&gt;Ndor1 -->
<g id="edge69" class="edge">
<title>Ly6d&#45;&gt;Ndor1</title>
<path fill="none" stroke="black" d="M785.47,-584.2C754.9,-573.71 702.25,-555.61 657.09,-540 653.62,-538.8 650.02,-537.55 646.41,-536.3"/>
<polygon fill="black" stroke="black" points="647.92,-532.78 637.32,-532.81 645.63,-539.39 647.92,-532.78"/>
</g>
<!-- Ly6d&#45;&gt;COX3 -->
<g id="edge72" class="edge">
<title>Ly6d&#45;&gt;COX3</title>
<path fill="none" stroke="black" d="M784.92,-585.06C759.26,-576.49 719.77,-561.17 690.09,-540 676.44,-530.26 647.93,-498.07 628.4,-475.21"/>
<polygon fill="black" stroke="black" points="630.55,-473.33 621.41,-467.97 625.21,-477.86 630.55,-473.33"/>
</g>
<!-- F10 -->
<g id="node37" class="node">
<title>F10</title>
<ellipse fill="white" stroke="black" cx="726.09" cy="-522" rx="27" ry="18"/>
<text text-anchor="middle" x="726.09" y="-516.58" font-family="Times New Roman,serif" font-size="14.00">F10</text>
</g>
<!-- F10&#45;&gt;Slc30a5 -->
<g id="edge78" class="edge">
<title>F10&#45;&gt;Slc30a5</title>
<path fill="none" stroke="black" d="M721.49,-504.05C719.42,-496.43 716.92,-487.23 714.59,-478.65"/>
<polygon fill="black" stroke="black" points="717.77,-478.01 711.77,-469.28 711.02,-479.84 717.77,-478.01"/>
</g>
<!-- Ndor1&#45;&gt;Slc30a5 -->
<g id="edge79" class="edge">
<title>Ndor1&#45;&gt;Slc30a5</title>
<path fill="none" stroke="black" d="M628.12,-506.83C642.29,-496.82 661.52,-483.22 677.46,-471.95"/>
<polygon fill="black" stroke="black" points="679.26,-474.26 685.4,-465.63 675.21,-468.54 679.26,-474.26"/>
</g>
<!-- Ndor1&#45;&gt;COX3 -->
<g id="edge73" class="edge">
<title>Ndor1&#45;&gt;COX3</title>
<path fill="none" stroke="black" d="M608.09,-503.7C608.09,-496.24 608.09,-487.32 608.09,-478.97"/>
<polygon fill="black" stroke="black" points="611.59,-479.1 608.09,-469.1 604.59,-479.1 611.59,-479.1"/>
</g>
<!-- COX3&#45;&gt;Slc39a1 -->
<g id="edge75" class="edge">
<title>COX3&#45;&gt;Slc39a1</title>
<path fill="none" stroke="black" d="M635.12,-438.06C663.76,-426.47 709.26,-408.06 741.85,-394.88"/>
<polygon fill="black" stroke="black" points="742.98,-397.79 750.93,-390.8 740.35,-391.3 742.98,-397.79"/>
</g>
<!-- COX3&#45;&gt;Cyp2d11 -->
<g id="edge80" class="edge">
<title>COX3&#45;&gt;Cyp2d11</title>
<path fill="none" stroke="black" d="M590.48,-434.15C579.35,-424.76 564.73,-412.44 552.14,-401.82"/>
<polygon fill="black" stroke="black" points="554.72,-398.57 544.82,-394.8 550.2,-403.92 554.72,-398.57"/>
</g>
<!-- Gm13202&#45;&gt;Slc39a1 -->
<g id="edge76" class="edge">
<title>Gm13202&#45;&gt;Slc39a1</title>
<path fill="none" stroke="black" d="M660.98,-791.94C682.31,-750.21 736.47,-639.17 762.09,-540 773.87,-494.37 778.37,-439.56 780.07,-407.09"/>
<polygon fill="black" stroke="black" points="783.61,-407.35 780.58,-397.2 776.62,-407.03 783.61,-407.35"/>
</g>
<!-- Fmo3&#45;&gt;Slc39a5 -->
<g id="edge66" class="edge">
<title>Fmo3&#45;&gt;Slc39a5</title>
<path fill="none" stroke="black" d="M214.09,-71.7C214.09,-64.24 214.09,-55.32 214.09,-46.97"/>
<polygon fill="black" stroke="black" points="217.59,-47.1 214.09,-37.1 210.59,-47.1 217.59,-47.1"/>
</g>
</g>
</svg>
