<?xml version="1.0" encoding="UTF-8" standalone="no"?>
<!DOCTYPE svg PUBLIC "-//W3C//DTD SVG 1.1//EN"
 "http://www.w3.org/Graphics/SVG/1.1/DTD/svg11.dtd">
<!-- Generated by graphviz version 8.1.0 (20230707.0739)
 -->
<!-- Pages: 1 -->
<svg width="548pt" height="620pt"
 viewBox="0.00 0.00 547.69 620.00" xmlns="http://www.w3.org/2000/svg" xmlns:xlink="http://www.w3.org/1999/xlink">
<g id="graph0" class="graph" transform="scale(1 1) rotate(0) translate(4 616)">
<polygon fill="white" stroke="none" points="-4,4 -4,-616 543.69,-616 543.69,4 -4,4"/>
<!-- Acaa1a -->
<g id="node1" class="node">
<title>Acaa1a</title>
<ellipse fill="white" stroke="black" cx="38.09" cy="-90" rx="38.09" ry="18"/>
<text text-anchor="middle" x="38.09" y="-84.58" font-family="Times New Roman,serif" font-size="14.00">Acaa1a</text>
</g>
<!-- Atg7KO -->
<g id="node16" class="node">
<title>Atg7KO</title>
<ellipse fill="#ffffb3" stroke="black" cx="140.09" cy="-18" rx="43.84" ry="18"/>
<text text-anchor="middle" x="140.09" y="-13.32" font-family="Calibri-BoldItalic" font-size="14.00">Atg7KO</text>
</g>
<!-- Acaa1a&#45;&gt;Atg7KO -->
<g id="edge12" class="edge">
<title>Acaa1a&#45;&gt;Atg7KO</title>
<path fill="none" stroke="black" d="M58.73,-74.83C73.37,-64.79 93.25,-51.15 109.7,-39.86"/>
<polygon fill="black" stroke="black" points="111.16,-42.41 117.42,-33.87 107.2,-36.64 111.16,-42.41"/>
</g>
<!-- Cyp2b10 -->
<g id="node2" class="node">
<title>Cyp2b10</title>
<ellipse fill="white" stroke="black" cx="181.09" cy="-522" rx="45.08" ry="18"/>
<text text-anchor="middle" x="181.09" y="-516.58" font-family="Times New Roman,serif" font-size="14.00">Cyp2b10</text>
</g>
<!-- Aass -->
<g id="node4" class="node">
<title>Aass</title>
<ellipse fill="white" stroke="black" cx="242.09" cy="-450" rx="29.11" ry="18"/>
<text text-anchor="middle" x="242.09" y="-444.57" font-family="Times New Roman,serif" font-size="14.00">Aass</text>
</g>
<!-- Cyp2b10&#45;&gt;Aass -->
<g id="edge2" class="edge">
<title>Cyp2b10&#45;&gt;Aass</title>
<path fill="none" stroke="black" d="M195.24,-504.76C203.08,-495.77 212.96,-484.42 221.63,-474.48"/>
<polygon fill="black" stroke="black" points="224.92,-477.03 228.85,-467.19 219.65,-472.43 224.92,-477.03"/>
</g>
<!-- Mtf1 -->
<g id="node6" class="node">
<title>Mtf1</title>
<ellipse fill="white" stroke="black" cx="161.09" cy="-306" rx="28.61" ry="18"/>
<text text-anchor="middle" x="161.09" y="-300.57" font-family="Times New Roman,serif" font-size="14.00">Mtf1</text>
</g>
<!-- Cyp2b10&#45;&gt;Mtf1 -->
<g id="edge6" class="edge">
<title>Cyp2b10&#45;&gt;Mtf1</title>
<path fill="none" stroke="black" d="M179.49,-503.85C176.04,-466.99 167.91,-379.92 163.7,-334.96"/>
<polygon fill="black" stroke="black" points="167.12,-334.86 162.7,-325.23 160.15,-335.51 167.12,-334.86"/>
</g>
<!-- Cyp2b10&#45;&gt;Atg7KO -->
<g id="edge13" class="edge">
<title>Cyp2b10&#45;&gt;Atg7KO</title>
<path fill="none" stroke="black" d="M165.51,-505.06C143.01,-480.28 104.09,-430.04 104.09,-379 104.09,-379 104.09,-379 104.09,-161 104.09,-119.96 118.4,-74.23 128.97,-46.03"/>
<polygon fill="black" stroke="black" points="132.46,-47.72 132.8,-37.13 125.93,-45.19 132.46,-47.72"/>
</g>
<!-- Slc39a7 -->
<g id="node3" class="node">
<title>Slc39a7</title>
<ellipse fill="white" stroke="black" cx="320.09" cy="-594" rx="40.09" ry="18"/>
<text text-anchor="middle" x="320.09" y="-588.58" font-family="Times New Roman,serif" font-size="14.00">Slc39a7</text>
</g>
<!-- Slc39a7&#45;&gt;Cyp2b10 -->
<g id="edge1" class="edge">
<title>Slc39a7&#45;&gt;Cyp2b10</title>
<path fill="none" stroke="black" d="M294.27,-580C272.74,-569.16 241.81,-553.58 217.72,-541.45"/>
<polygon fill="black" stroke="black" points="219.7,-538.02 209.19,-536.65 216.55,-544.27 219.7,-538.02"/>
</g>
<!-- Wdr34 -->
<g id="node7" class="node">
<title>Wdr34</title>
<ellipse fill="white" stroke="black" cx="320.09" cy="-522" rx="36.59" ry="18"/>
<text text-anchor="middle" x="320.09" y="-516.58" font-family="Times New Roman,serif" font-size="14.00">Wdr34</text>
</g>
<!-- Slc39a7&#45;&gt;Wdr34 -->
<g id="edge10" class="edge">
<title>Slc39a7&#45;&gt;Wdr34</title>
<path fill="none" stroke="black" d="M320.09,-575.7C320.09,-568.24 320.09,-559.32 320.09,-550.97"/>
<polygon fill="black" stroke="black" points="323.59,-551.1 320.09,-541.1 316.59,-551.1 323.59,-551.1"/>
</g>
<!-- Slc39a7&#45;&gt;Atg7KO -->
<g id="edge15" class="edge">
<title>Slc39a7&#45;&gt;Atg7KO</title>
<path fill="none" stroke="black" d="M337.29,-577.37C362.13,-553 405.09,-503.29 405.09,-451 405.09,-451 405.09,-451 405.09,-161 405.09,-65.91 270.88,-34.25 193.49,-23.89"/>
<polygon fill="black" stroke="black" points="194.32,-20.34 183.96,-22.57 193.45,-27.29 194.32,-20.34"/>
</g>
<!-- Hnf4a -->
<g id="node5" class="node">
<title>Hnf4a</title>
<ellipse fill="white" stroke="black" cx="242.09" cy="-378" rx="33.1" ry="18"/>
<text text-anchor="middle" x="242.09" y="-372.57" font-family="Times New Roman,serif" font-size="14.00">Hnf4a</text>
</g>
<!-- Aass&#45;&gt;Hnf4a -->
<g id="edge3" class="edge">
<title>Aass&#45;&gt;Hnf4a</title>
<path fill="none" stroke="black" d="M242.09,-431.7C242.09,-424.24 242.09,-415.32 242.09,-406.97"/>
<polygon fill="black" stroke="black" points="245.59,-407.1 242.09,-397.1 238.59,-407.1 245.59,-407.1"/>
</g>
<!-- Slc30a7 -->
<g id="node14" class="node">
<title>Slc30a7</title>
<ellipse fill="white" stroke="black" cx="336.09" cy="-378" rx="40.09" ry="18"/>
<text text-anchor="middle" x="336.09" y="-372.57" font-family="Times New Roman,serif" font-size="14.00">Slc30a7</text>
</g>
<!-- Aass&#45;&gt;Slc30a7 -->
<g id="edge4" class="edge">
<title>Aass&#45;&gt;Slc30a7</title>
<path fill="none" stroke="black" d="M260.21,-435.5C273.59,-425.54 292.07,-411.78 307.44,-400.34"/>
<polygon fill="black" stroke="black" points="309.14,-402.69 315.07,-393.91 304.96,-397.07 309.14,-402.69"/>
</g>
<!-- Hnf4a&#45;&gt;Mtf1 -->
<g id="edge7" class="edge">
<title>Hnf4a&#45;&gt;Mtf1</title>
<path fill="none" stroke="black" d="M224.91,-362.15C213.52,-352.31 198.39,-339.23 185.72,-328.28"/>
<polygon fill="black" stroke="black" points="188.27,-325 178.41,-321.11 183.69,-330.29 188.27,-325"/>
</g>
<!-- Slc30a10 -->
<g id="node11" class="node">
<title>Slc30a10</title>
<ellipse fill="white" stroke="black" cx="252.09" cy="-306" rx="44.58" ry="18"/>
<text text-anchor="middle" x="252.09" y="-300.57" font-family="Times New Roman,serif" font-size="14.00">Slc30a10</text>
</g>
<!-- Hnf4a&#45;&gt;Slc30a10 -->
<g id="edge16" class="edge">
<title>Hnf4a&#45;&gt;Slc30a10</title>
<path fill="none" stroke="black" d="M244.56,-359.7C245.63,-352.24 246.9,-343.32 248.09,-334.97"/>
<polygon fill="black" stroke="black" points="251.7,-335.5 249.65,-325.1 244.77,-334.51 251.7,-335.5"/>
</g>
<!-- Mt1 -->
<g id="node8" class="node">
<title>Mt1</title>
<ellipse fill="white" stroke="black" cx="168.09" cy="-234" rx="27" ry="18"/>
<text text-anchor="middle" x="168.09" y="-228.57" font-family="Times New Roman,serif" font-size="14.00">Mt1</text>
</g>
<!-- Mtf1&#45;&gt;Mt1 -->
<g id="edge8" class="edge">
<title>Mtf1&#45;&gt;Mt1</title>
<path fill="none" stroke="black" d="M162.82,-287.7C163.57,-280.24 164.46,-271.32 165.29,-262.97"/>
<polygon fill="black" stroke="black" points="168.87,-263.4 166.38,-253.1 161.9,-262.71 168.87,-263.4"/>
</g>
<!-- Slc30a1 -->
<g id="node9" class="node">
<title>Slc30a1</title>
<ellipse fill="white" stroke="black" cx="175.09" cy="-162" rx="40.09" ry="18"/>
<text text-anchor="middle" x="175.09" y="-156.57" font-family="Times New Roman,serif" font-size="14.00">Slc30a1</text>
</g>
<!-- Mt1&#45;&gt;Slc30a1 -->
<g id="edge9" class="edge">
<title>Mt1&#45;&gt;Slc30a1</title>
<path fill="none" stroke="black" d="M169.82,-215.7C170.57,-208.24 171.46,-199.32 172.29,-190.97"/>
<polygon fill="black" stroke="black" points="175.87,-191.4 173.38,-181.1 168.9,-190.71 175.87,-191.4"/>
</g>
<!-- Cyp2c50 -->
<g id="node10" class="node">
<title>Cyp2c50</title>
<ellipse fill="white" stroke="black" cx="177.09" cy="-90" rx="44.58" ry="18"/>
<text text-anchor="middle" x="177.09" y="-84.58" font-family="Times New Roman,serif" font-size="14.00">Cyp2c50</text>
</g>
<!-- Slc30a1&#45;&gt;Cyp2c50 -->
<g id="edge11" class="edge">
<title>Slc30a1&#45;&gt;Cyp2c50</title>
<path fill="none" stroke="black" d="M175.58,-143.7C175.8,-136.24 176.05,-127.32 176.29,-118.97"/>
<polygon fill="black" stroke="black" points="179.81,-119.2 176.6,-109.1 172.82,-119 179.81,-119.2"/>
</g>
<!-- Cyp2c50&#45;&gt;Atg7KO -->
<g id="edge14" class="edge">
<title>Cyp2c50&#45;&gt;Atg7KO</title>
<path fill="none" stroke="black" d="M168.13,-72.05C163.91,-64.06 158.76,-54.33 154.04,-45.4"/>
<polygon fill="black" stroke="black" points="156.73,-43.99 148.96,-36.79 150.54,-47.27 156.73,-43.99"/>
</g>
<!-- Slc39a1 -->
<g id="node12" class="node">
<title>Slc39a1</title>
<ellipse fill="white" stroke="black" cx="418.09" cy="-594" rx="40.09" ry="18"/>
<text text-anchor="middle" x="418.09" y="-588.58" font-family="Times New Roman,serif" font-size="14.00">Slc39a1</text>
</g>
<!-- Gpx4 -->
<g id="node13" class="node">
<title>Gpx4</title>
<ellipse fill="white" stroke="black" cx="508.09" cy="-594" rx="31.6" ry="18"/>
<text text-anchor="middle" x="508.09" y="-588.58" font-family="Times New Roman,serif" font-size="14.00">Gpx4</text>
</g>
<!-- Cyb5 -->
<g id="node15" class="node">
<title>Cyb5</title>
<ellipse fill="white" stroke="black" cx="346.09" cy="-306" rx="31.1" ry="18"/>
<text text-anchor="middle" x="346.09" y="-300.57" font-family="Times New Roman,serif" font-size="14.00">Cyb5</text>
</g>
<!-- Slc30a7&#45;&gt;Cyb5 -->
<g id="edge5" class="edge">
<title>Slc30a7&#45;&gt;Cyb5</title>
<path fill="none" stroke="black" d="M338.56,-359.7C339.63,-352.24 340.9,-343.32 342.09,-334.97"/>
<polygon fill="black" stroke="black" points="345.7,-335.5 343.65,-325.1 338.77,-334.51 345.7,-335.5"/>
</g>
</g>
</svg>
