<?xml version="1.0" encoding="UTF-8" standalone="no"?>
<!DOCTYPE svg PUBLIC "-//W3C//DTD SVG 1.1//EN"
 "http://www.w3.org/Graphics/SVG/1.1/DTD/svg11.dtd">
<!-- Generated by graphviz version 8.1.0 (20230707.0739)
 -->
<!-- Pages: 1 -->
<svg width="440pt" height="548pt"
 viewBox="0.00 0.00 439.71 548.00" xmlns="http://www.w3.org/2000/svg" xmlns:xlink="http://www.w3.org/1999/xlink">
<g id="graph0" class="graph" transform="scale(1 1) rotate(0) translate(4 544)">
<polygon fill="white" stroke="none" points="-4,4 -4,-544 435.71,-544 435.71,4 -4,4"/>
<!-- Acaa1a -->
<g id="node1" class="node">
<title>Acaa1a</title>
<ellipse fill="white" stroke="black" cx="116.1" cy="-522" rx="38.09" ry="18"/>
<text text-anchor="middle" x="116.1" y="-516.58" font-family="Times New Roman,serif" font-size="14.00">Acaa1a</text>
</g>
<!-- Cyp2b10 -->
<g id="node2" class="node">
<title>Cyp2b10</title>
<ellipse fill="white" stroke="black" cx="162.1" cy="-450" rx="45.08" ry="18"/>
<text text-anchor="middle" x="162.1" y="-444.57" font-family="Times New Roman,serif" font-size="14.00">Cyp2b10</text>
</g>
<!-- Aass -->
<g id="node4" class="node">
<title>Aass</title>
<ellipse fill="white" stroke="black" cx="132.1" cy="-378" rx="29.11" ry="18"/>
<text text-anchor="middle" x="132.1" y="-372.57" font-family="Times New Roman,serif" font-size="14.00">Aass</text>
</g>
<!-- Cyp2b10&#45;&gt;Aass -->
<g id="edge2" class="edge">
<title>Cyp2b10&#45;&gt;Aass</title>
<path fill="none" stroke="black" d="M154.84,-432.05C151.45,-424.14 147.34,-414.54 143.54,-405.69"/>
<polygon fill="black" stroke="black" points="146.46,-404.6 139.3,-396.79 140.02,-407.36 146.46,-404.6"/>
</g>
<!-- Mtf1 -->
<g id="node6" class="node">
<title>Mtf1</title>
<ellipse fill="white" stroke="black" cx="216.1" cy="-234" rx="28.61" ry="18"/>
<text text-anchor="middle" x="216.1" y="-228.57" font-family="Times New Roman,serif" font-size="14.00">Mtf1</text>
</g>
<!-- Cyp2b10&#45;&gt;Mtf1 -->
<g id="edge6" class="edge">
<title>Cyp2b10&#45;&gt;Mtf1</title>
<path fill="none" stroke="black" d="M166.43,-431.85C175.75,-394.91 197.8,-307.55 209.12,-262.67"/>
<polygon fill="black" stroke="black" points="212.7,-263.78 211.76,-253.23 205.92,-262.07 212.7,-263.78"/>
</g>
<!-- Slc39a7 -->
<g id="node3" class="node">
<title>Slc39a7</title>
<ellipse fill="white" stroke="black" cx="212.1" cy="-522" rx="40.09" ry="18"/>
<text text-anchor="middle" x="212.1" y="-516.58" font-family="Times New Roman,serif" font-size="14.00">Slc39a7</text>
</g>
<!-- Slc39a7&#45;&gt;Cyp2b10 -->
<g id="edge1" class="edge">
<title>Slc39a7&#45;&gt;Cyp2b10</title>
<path fill="none" stroke="black" d="M200.25,-504.41C194.28,-496.04 186.9,-485.71 180.23,-476.37"/>
<polygon fill="black" stroke="black" points="182.53,-474.57 173.87,-468.47 176.83,-478.64 182.53,-474.57"/>
</g>
<!-- Wdr34 -->
<g id="node7" class="node">
<title>Wdr34</title>
<ellipse fill="white" stroke="black" cx="262.1" cy="-450" rx="36.59" ry="18"/>
<text text-anchor="middle" x="262.1" y="-444.57" font-family="Times New Roman,serif" font-size="14.00">Wdr34</text>
</g>
<!-- Slc39a7&#45;&gt;Wdr34 -->
<g id="edge10" class="edge">
<title>Slc39a7&#45;&gt;Wdr34</title>
<path fill="none" stroke="black" d="M223.95,-504.41C229.93,-496.04 237.31,-485.71 243.98,-476.37"/>
<polygon fill="black" stroke="black" points="247.38,-478.64 250.34,-468.47 241.68,-474.57 247.38,-478.64"/>
</g>
<!-- Hnf4a -->
<g id="node5" class="node">
<title>Hnf4a</title>
<ellipse fill="white" stroke="black" cx="132.1" cy="-306" rx="33.1" ry="18"/>
<text text-anchor="middle" x="132.1" y="-300.57" font-family="Times New Roman,serif" font-size="14.00">Hnf4a</text>
</g>
<!-- Aass&#45;&gt;Hnf4a -->
<g id="edge3" class="edge">
<title>Aass&#45;&gt;Hnf4a</title>
<path fill="none" stroke="black" d="M132.1,-359.7C132.1,-352.24 132.1,-343.32 132.1,-334.97"/>
<polygon fill="black" stroke="black" points="135.6,-335.1 132.1,-325.1 128.6,-335.1 135.6,-335.1"/>
</g>
<!-- Slc30a7 -->
<g id="node14" class="node">
<title>Slc30a7</title>
<ellipse fill="white" stroke="black" cx="40.1" cy="-306" rx="40.09" ry="18"/>
<text text-anchor="middle" x="40.1" y="-300.57" font-family="Times New Roman,serif" font-size="14.00">Slc30a7</text>
</g>
<!-- Aass&#45;&gt;Slc30a7 -->
<g id="edge4" class="edge">
<title>Aass&#45;&gt;Slc30a7</title>
<path fill="none" stroke="black" d="M114.37,-363.5C101.27,-353.54 83.19,-339.78 68.14,-328.34"/>
<polygon fill="black" stroke="black" points="70.78,-325.18 60.7,-321.91 66.54,-330.75 70.78,-325.18"/>
</g>
<!-- Hnf4a&#45;&gt;Mtf1 -->
<g id="edge7" class="edge">
<title>Hnf4a&#45;&gt;Mtf1</title>
<path fill="none" stroke="black" d="M149.51,-290.5C161.49,-280.51 177.6,-267.09 190.97,-255.94"/>
<polygon fill="black" stroke="black" points="192.85,-258.1 198.29,-249.01 188.37,-252.72 192.85,-258.1"/>
</g>
<!-- Slc30a10 -->
<g id="node11" class="node">
<title>Slc30a10</title>
<ellipse fill="white" stroke="black" cx="125.1" cy="-234" rx="44.58" ry="18"/>
<text text-anchor="middle" x="125.1" y="-228.57" font-family="Times New Roman,serif" font-size="14.00">Slc30a10</text>
</g>
<!-- Hnf4a&#45;&gt;Slc30a10 -->
<g id="edge12" class="edge">
<title>Hnf4a&#45;&gt;Slc30a10</title>
<path fill="none" stroke="black" d="M130.37,-287.7C129.63,-280.24 128.74,-271.32 127.9,-262.97"/>
<polygon fill="black" stroke="black" points="131.29,-262.71 126.81,-253.1 124.33,-263.4 131.29,-262.71"/>
</g>
<!-- Mt1 -->
<g id="node8" class="node">
<title>Mt1</title>
<ellipse fill="white" stroke="black" cx="216.1" cy="-162" rx="27" ry="18"/>
<text text-anchor="middle" x="216.1" y="-156.57" font-family="Times New Roman,serif" font-size="14.00">Mt1</text>
</g>
<!-- Mtf1&#45;&gt;Mt1 -->
<g id="edge8" class="edge">
<title>Mtf1&#45;&gt;Mt1</title>
<path fill="none" stroke="black" d="M216.1,-215.7C216.1,-208.24 216.1,-199.32 216.1,-190.97"/>
<polygon fill="black" stroke="black" points="219.6,-191.1 216.1,-181.1 212.6,-191.1 219.6,-191.1"/>
</g>
<!-- Slc30a1 -->
<g id="node9" class="node">
<title>Slc30a1</title>
<ellipse fill="white" stroke="black" cx="216.1" cy="-90" rx="40.09" ry="18"/>
<text text-anchor="middle" x="216.1" y="-84.58" font-family="Times New Roman,serif" font-size="14.00">Slc30a1</text>
</g>
<!-- Mt1&#45;&gt;Slc30a1 -->
<g id="edge9" class="edge">
<title>Mt1&#45;&gt;Slc30a1</title>
<path fill="none" stroke="black" d="M216.1,-143.7C216.1,-136.24 216.1,-127.32 216.1,-118.97"/>
<polygon fill="black" stroke="black" points="219.6,-119.1 216.1,-109.1 212.6,-119.1 219.6,-119.1"/>
</g>
<!-- Cyp2c50 -->
<g id="node10" class="node">
<title>Cyp2c50</title>
<ellipse fill="white" stroke="black" cx="216.1" cy="-18" rx="44.58" ry="18"/>
<text text-anchor="middle" x="216.1" y="-12.57" font-family="Times New Roman,serif" font-size="14.00">Cyp2c50</text>
</g>
<!-- Slc30a1&#45;&gt;Cyp2c50 -->
<g id="edge11" class="edge">
<title>Slc30a1&#45;&gt;Cyp2c50</title>
<path fill="none" stroke="black" d="M216.1,-71.7C216.1,-64.24 216.1,-55.32 216.1,-46.97"/>
<polygon fill="black" stroke="black" points="219.6,-47.1 216.1,-37.1 212.6,-47.1 219.6,-47.1"/>
</g>
<!-- Slc39a1 -->
<g id="node12" class="node">
<title>Slc39a1</title>
<ellipse fill="white" stroke="black" cx="310.1" cy="-522" rx="40.09" ry="18"/>
<text text-anchor="middle" x="310.1" y="-516.58" font-family="Times New Roman,serif" font-size="14.00">Slc39a1</text>
</g>
<!-- Gpx4 -->
<g id="node13" class="node">
<title>Gpx4</title>
<ellipse fill="white" stroke="black" cx="400.1" cy="-522" rx="31.6" ry="18"/>
<text text-anchor="middle" x="400.1" y="-516.58" font-family="Times New Roman,serif" font-size="14.00">Gpx4</text>
</g>
<!-- Cyb5 -->
<g id="node15" class="node">
<title>Cyb5</title>
<ellipse fill="white" stroke="black" cx="31.1" cy="-234" rx="31.1" ry="18"/>
<text text-anchor="middle" x="31.1" y="-228.57" font-family="Times New Roman,serif" font-size="14.00">Cyb5</text>
</g>
<!-- Slc30a7&#45;&gt;Cyb5 -->
<g id="edge5" class="edge">
<title>Slc30a7&#45;&gt;Cyb5</title>
<path fill="none" stroke="black" d="M37.88,-287.7C36.92,-280.24 35.77,-271.32 34.7,-262.97"/>
<polygon fill="black" stroke="black" points="38.05,-262.58 33.3,-253.1 31.11,-263.47 38.05,-262.58"/>
</g>
</g>
</svg>
