<?xml version="1.0" encoding="UTF-8" standalone="no"?>
<!DOCTYPE svg PUBLIC "-//W3C//DTD SVG 1.1//EN"
 "http://www.w3.org/Graphics/SVG/1.1/DTD/svg11.dtd">
<!-- Generated by graphviz version 8.0.5 (20230430.1635)
 -->
<!-- Pages: 1 -->
<svg width="1680pt" height="620pt"
 viewBox="0.00 0.00 1680.00 620.00" xmlns="http://www.w3.org/2000/svg" xmlns:xlink="http://www.w3.org/1999/xlink">
<g id="graph0" class="graph" transform="scale(1 1) rotate(0) translate(4 616)">
<polygon fill="white" stroke="none" points="-4,4 -4,-616 1676,-616 1676,4 -4,4"/>
<!-- Acaa1a -->
<g id="node1" class="node">
<title>Acaa1a</title>
<ellipse fill="none" stroke="black" cx="654" cy="-594" rx="38.09" ry="18"/>
<text text-anchor="middle" x="654" y="-588.58" font-family="Times New Roman,serif" font-size="14.00">Acaa1a</text>
</g>
<!-- Cyp2b10 -->
<g id="node2" class="node">
<title>Cyp2b10</title>
<ellipse fill="none" stroke="black" cx="580" cy="-522" rx="45.08" ry="18"/>
<text text-anchor="middle" x="580" y="-516.58" font-family="Times New Roman,serif" font-size="14.00">Cyp2b10</text>
</g>
<!-- Acaa1a&#45;&gt;Cyp2b10 -->
<g id="edge1" class="edge">
<title>Acaa1a&#45;&gt;Cyp2b10</title>
<path fill="none" stroke="black" d="M637.58,-577.46C627.94,-568.35 615.57,-556.65 604.77,-546.43"/>
<polygon fill="black" stroke="black" points="607.56,-544.31 597.89,-539.98 602.75,-549.39 607.56,-544.31"/>
</g>
<!-- Slc39a7 -->
<g id="node3" class="node">
<title>Slc39a7</title>
<ellipse fill="none" stroke="black" cx="1047" cy="-522" rx="40.09" ry="18"/>
<text text-anchor="middle" x="1047" y="-516.58" font-family="Times New Roman,serif" font-size="14.00">Slc39a7</text>
</g>
<!-- Acaa1a&#45;&gt;Slc39a7 -->
<g id="edge2" class="edge">
<title>Acaa1a&#45;&gt;Slc39a7</title>
<path fill="none" stroke="black" d="M689.22,-586.73C759.94,-574.13 919.25,-545.75 999.26,-531.5"/>
<polygon fill="black" stroke="black" points="999.77,-534.79 1009,-529.59 998.54,-527.9 999.77,-534.79"/>
</g>
<!-- Aass -->
<g id="node4" class="node">
<title>Aass</title>
<ellipse fill="none" stroke="black" cx="977" cy="-450" rx="29.11" ry="18"/>
<text text-anchor="middle" x="977" y="-444.57" font-family="Times New Roman,serif" font-size="14.00">Aass</text>
</g>
<!-- Acaa1a&#45;&gt;Aass -->
<g id="edge3" class="edge">
<title>Acaa1a&#45;&gt;Aass</title>
<path fill="none" stroke="black" d="M681.26,-581.02C740.33,-555.05 879.95,-493.66 943.93,-465.54"/>
<polygon fill="black" stroke="black" points="945.14,-468.39 952.89,-461.16 942.33,-461.98 945.14,-468.39"/>
</g>
<!-- Hnf4a -->
<g id="node5" class="node">
<title>Hnf4a</title>
<ellipse fill="none" stroke="black" cx="715" cy="-378" rx="33.1" ry="18"/>
<text text-anchor="middle" x="715" y="-372.57" font-family="Times New Roman,serif" font-size="14.00">Hnf4a</text>
</g>
<!-- Acaa1a&#45;&gt;Hnf4a -->
<g id="edge4" class="edge">
<title>Acaa1a&#45;&gt;Hnf4a</title>
<path fill="none" stroke="black" d="M654.01,-575.89C654.58,-545.73 658.25,-481.63 678,-432 682.02,-421.89 688.3,-411.84 694.56,-403.25"/>
<polygon fill="black" stroke="black" points="697.91,-405.63 701.22,-395.57 692.36,-401.37 697.91,-405.63"/>
</g>
<!-- Mtf1 -->
<g id="node6" class="node">
<title>Mtf1</title>
<ellipse fill="none" stroke="black" cx="361" cy="-306" rx="28.61" ry="18"/>
<text text-anchor="middle" x="361" y="-300.57" font-family="Times New Roman,serif" font-size="14.00">Mtf1</text>
</g>
<!-- Acaa1a&#45;&gt;Mtf1 -->
<g id="edge5" class="edge">
<title>Acaa1a&#45;&gt;Mtf1</title>
<path fill="none" stroke="black" d="M616.09,-590.7C521.93,-584.6 283.29,-566.63 260,-540 207.34,-479.78 218.61,-428.46 260,-360 273.8,-337.18 301.03,-323.7 323.74,-316.05"/>
<polygon fill="black" stroke="black" points="324.6,-319.14 333.12,-312.84 322.53,-312.45 324.6,-319.14"/>
</g>
<!-- Wdr34 -->
<g id="node7" class="node">
<title>Wdr34</title>
<ellipse fill="none" stroke="black" cx="1091" cy="-306" rx="36.59" ry="18"/>
<text text-anchor="middle" x="1091" y="-300.57" font-family="Times New Roman,serif" font-size="14.00">Wdr34</text>
</g>
<!-- Acaa1a&#45;&gt;Wdr34 -->
<g id="edge6" class="edge">
<title>Acaa1a&#45;&gt;Wdr34</title>
<path fill="none" stroke="black" d="M691.98,-591.28C794.21,-586.26 1069.33,-570.06 1096,-540 1146.95,-482.58 1119.63,-382.3 1102.08,-334.22"/>
<polygon fill="black" stroke="black" points="1105.01,-333.09 1098.19,-324.98 1098.47,-335.57 1105.01,-333.09"/>
</g>
<!-- Mt1 -->
<g id="node8" class="node">
<title>Mt1</title>
<ellipse fill="none" stroke="black" cx="270" cy="-234" rx="27" ry="18"/>
<text text-anchor="middle" x="270" y="-228.57" font-family="Times New Roman,serif" font-size="14.00">Mt1</text>
</g>
<!-- Acaa1a&#45;&gt;Mt1 -->
<g id="edge7" class="edge">
<title>Acaa1a&#45;&gt;Mt1</title>
<path fill="none" stroke="black" d="M616.19,-590.83C517.77,-584.81 259.34,-566.63 232,-540 155.02,-465.05 222.64,-319.32 255.02,-260.52"/>
<polygon fill="black" stroke="black" points="258.4,-262.65 260.25,-252.21 252.3,-259.21 258.4,-262.65"/>
</g>
<!-- Slc30a1 -->
<g id="node9" class="node">
<title>Slc30a1</title>
<ellipse fill="none" stroke="black" cx="338" cy="-162" rx="40.09" ry="18"/>
<text text-anchor="middle" x="338" y="-156.57" font-family="Times New Roman,serif" font-size="14.00">Slc30a1</text>
</g>
<!-- Acaa1a&#45;&gt;Slc30a1 -->
<g id="edge8" class="edge">
<title>Acaa1a&#45;&gt;Slc30a1</title>
<path fill="none" stroke="black" d="M615.93,-592.42C481.63,-589.36 38,-570.22 38,-451 38,-451 38,-451 38,-377 38,-253.81 207.74,-194.86 291.86,-173.22"/>
<polygon fill="black" stroke="black" points="292.55,-176.4 301.41,-170.58 290.86,-169.61 292.55,-176.4"/>
</g>
<!-- Cyp2c50 -->
<g id="node10" class="node">
<title>Cyp2c50</title>
<ellipse fill="none" stroke="black" cx="580" cy="-90" rx="44.58" ry="18"/>
<text text-anchor="middle" x="580" y="-84.58" font-family="Times New Roman,serif" font-size="14.00">Cyp2c50</text>
</g>
<!-- Acaa1a&#45;&gt;Cyp2c50 -->
<g id="edge9" class="edge">
<title>Acaa1a&#45;&gt;Cyp2c50</title>
<path fill="none" stroke="black" d="M615.77,-592.2C524.32,-589.65 295.86,-579.41 232,-540 125.94,-474.56 76,-431.62 76,-307 76,-307 76,-307 76,-233 76,-140.47 394.69,-105.31 525.23,-94.79"/>
<polygon fill="black" stroke="black" points="525.46,-98.2 535.15,-93.93 524.91,-91.22 525.46,-98.2"/>
</g>
<!-- Slc30a10 -->
<g id="node11" class="node">
<title>Slc30a10</title>
<ellipse fill="none" stroke="black" cx="931" cy="-234" rx="44.58" ry="18"/>
<text text-anchor="middle" x="931" y="-228.57" font-family="Times New Roman,serif" font-size="14.00">Slc30a10</text>
</g>
<!-- Acaa1a&#45;&gt;Slc30a10 -->
<g id="edge10" class="edge">
<title>Acaa1a&#45;&gt;Slc30a10</title>
<path fill="none" stroke="black" d="M666.62,-576.69C710.78,-519.61 858.56,-328.62 911.73,-259.9"/>
<polygon fill="black" stroke="black" points="914.95,-262.46 918.3,-252.41 909.42,-258.18 914.95,-262.46"/>
</g>
<!-- Slc39a1 -->
<g id="node12" class="node">
<title>Slc39a1</title>
<ellipse fill="none" stroke="black" cx="796" cy="-234" rx="40.09" ry="18"/>
<text text-anchor="middle" x="796" y="-228.57" font-family="Times New Roman,serif" font-size="14.00">Slc39a1</text>
</g>
<!-- Acaa1a&#45;&gt;Slc39a1 -->
<g id="edge11" class="edge">
<title>Acaa1a&#45;&gt;Slc39a1</title>
<path fill="none" stroke="black" d="M617.25,-588.81C587.09,-583.21 546.18,-570.2 526,-540 506.5,-510.83 505.57,-491.68 550,-360 561.57,-325.72 559.58,-310.39 588,-288 633.16,-252.42 699.43,-240.47 744.97,-236.6"/>
<polygon fill="black" stroke="black" points="745.07,-240.03 754.78,-235.8 744.55,-233.05 745.07,-240.03"/>
</g>
<!-- Gpx4 -->
<g id="node13" class="node">
<title>Gpx4</title>
<ellipse fill="none" stroke="black" cx="1254" cy="-234" rx="31.6" ry="18"/>
<text text-anchor="middle" x="1254" y="-228.57" font-family="Times New Roman,serif" font-size="14.00">Gpx4</text>
</g>
<!-- Acaa1a&#45;&gt;Gpx4 -->
<g id="edge12" class="edge">
<title>Acaa1a&#45;&gt;Gpx4</title>
<path fill="none" stroke="black" d="M692.36,-592.29C829.98,-589.44 1298.4,-577.16 1443,-540 1533.7,-516.69 1634,-544.65 1634,-451 1634,-451 1634,-451 1634,-377 1634,-305.29 1393.52,-257.81 1295.17,-241.39"/>
<polygon fill="black" stroke="black" points="1295.89,-237.8 1285.45,-239.63 1294.76,-244.7 1295.89,-237.8"/>
</g>
<!-- Slc30a7 -->
<g id="node14" class="node">
<title>Slc30a7</title>
<ellipse fill="none" stroke="black" cx="1528" cy="-378" rx="40.09" ry="18"/>
<text text-anchor="middle" x="1528" y="-372.57" font-family="Times New Roman,serif" font-size="14.00">Slc30a7</text>
</g>
<!-- Acaa1a&#45;&gt;Slc30a7 -->
<g id="edge13" class="edge">
<title>Acaa1a&#45;&gt;Slc30a7</title>
<path fill="none" stroke="black" d="M692.48,-593.1C791.65,-592.63 1063.63,-586.82 1284,-540 1379.28,-519.76 1420.11,-534.81 1491,-468 1508.2,-451.79 1517.69,-426.36 1522.73,-406.83"/>
<polygon fill="black" stroke="black" points="1526.37,-407.66 1525.22,-397.13 1519.55,-406.08 1526.37,-407.66"/>
</g>
<!-- Cyb5 -->
<g id="node15" class="node">
<title>Cyb5</title>
<ellipse fill="none" stroke="black" cx="1452" cy="-306" rx="31.1" ry="18"/>
<text text-anchor="middle" x="1452" y="-300.57" font-family="Times New Roman,serif" font-size="14.00">Cyb5</text>
</g>
<!-- Acaa1a&#45;&gt;Cyb5 -->
<g id="edge14" class="edge">
<title>Acaa1a&#45;&gt;Cyb5</title>
<path fill="none" stroke="black" d="M692.25,-592.2C822.15,-589.19 1245.48,-576.71 1376,-540 1481.79,-510.25 1539.17,-499.18 1577,-396 1582.51,-380.98 1585.83,-373.34 1577,-360 1558.48,-332.03 1521.92,-318.78 1493.1,-312.53"/>
<polygon fill="black" stroke="black" points="1493.97,-308.93 1483.49,-310.45 1492.63,-315.8 1493.97,-308.93"/>
</g>
<!-- Atg7KO -->
<g id="node16" class="node">
<title>Atg7KO</title>
<ellipse fill="none" stroke="black" cx="1080" cy="-18" rx="42.08" ry="18"/>
<text text-anchor="middle" x="1080" y="-12.57" font-family="Times New Roman,serif" font-size="14.00">Atg7KO</text>
</g>
<!-- Acaa1a&#45;&gt;Atg7KO -->
<g id="edge15" class="edge">
<title>Acaa1a&#45;&gt;Atg7KO</title>
<path fill="none" stroke="black" d="M615.53,-593.16C502.16,-593.05 171.4,-588.5 77,-540 30.48,-516.1 0,-503.3 0,-451 0,-451 0,-451 0,-161 0,-44.31 132.75,-95.72 247,-72 397.08,-40.84 867.95,-24.99 1026.95,-20.42"/>
<polygon fill="black" stroke="black" points="1026.95,-23.89 1036.85,-20.11 1026.75,-16.9 1026.95,-23.89"/>
</g>
<!-- Cyp2b10&#45;&gt;Aass -->
<g id="edge16" class="edge">
<title>Cyp2b10&#45;&gt;Aass</title>
<path fill="none" stroke="black" d="M620.62,-513.84C697.56,-500.27 863.57,-471 938.69,-457.75"/>
<polygon fill="black" stroke="black" points="938.85,-461.1 948.1,-455.92 937.64,-454.21 938.85,-461.1"/>
</g>
<!-- Cyp2b10&#45;&gt;Hnf4a -->
<g id="edge17" class="edge">
<title>Cyp2b10&#45;&gt;Hnf4a</title>
<path fill="none" stroke="black" d="M589.01,-503.93C599.56,-484.97 618.37,-454.11 640,-432 652.9,-418.82 669.45,-406.73 683.72,-397.43"/>
<polygon fill="black" stroke="black" points="685.13,-400.05 691.71,-391.75 681.39,-394.14 685.13,-400.05"/>
</g>
<!-- Cyp2b10&#45;&gt;Mtf1 -->
<g id="edge18" class="edge">
<title>Cyp2b10&#45;&gt;Mtf1</title>
<path fill="none" stroke="black" d="M552.38,-507.29C533.54,-497.42 508.4,-483.2 488,-468 450.69,-440.19 440.76,-432.57 412,-396 396.65,-376.48 382.9,-351.83 373.55,-333.42"/>
<polygon fill="black" stroke="black" points="376.28,-332.05 368.7,-324.65 370.01,-335.16 376.28,-332.05"/>
</g>
<!-- Cyp2b10&#45;&gt;Wdr34 -->
<g id="edge19" class="edge">
<title>Cyp2b10&#45;&gt;Wdr34</title>
<path fill="none" stroke="black" d="M610.44,-508.25C699.16,-471.1 957.38,-362.96 1053.97,-322.51"/>
<polygon fill="black" stroke="black" points="1054.99,-325.46 1062.86,-318.36 1052.29,-319 1054.99,-325.46"/>
</g>
<!-- Cyp2b10&#45;&gt;Mt1 -->
<g id="edge20" class="edge">
<title>Cyp2b10&#45;&gt;Mt1</title>
<path fill="none" stroke="black" d="M541.38,-512.18C467.66,-492.93 309.12,-439.33 252,-324 242.19,-304.19 248.53,-279.37 256.27,-260.98"/>
<polygon fill="black" stroke="black" points="259.75,-262.79 260.75,-252.24 253.39,-259.86 259.75,-262.79"/>
</g>
<!-- Cyp2b10&#45;&gt;Slc30a1 -->
<g id="edge21" class="edge">
<title>Cyp2b10&#45;&gt;Slc30a1</title>
<path fill="none" stroke="black" d="M536.35,-517.33C488.92,-511.91 412.02,-498.81 353,-468 310.59,-445.86 300.65,-435.03 273,-396 225.68,-329.21 191.23,-285.8 234,-216 246.74,-195.21 270.47,-182.26 292.06,-174.36"/>
<polygon fill="black" stroke="black" points="293.06,-177.38 301.42,-170.88 290.83,-170.75 293.06,-177.38"/>
</g>
<!-- Cyp2b10&#45;&gt;Cyp2c50 -->
<g id="edge22" class="edge">
<title>Cyp2b10&#45;&gt;Cyp2c50</title>
<path fill="none" stroke="black" d="M567.59,-504.32C560.95,-494.34 553.45,-481.09 550,-468 516.48,-340.72 553.85,-181.6 571.64,-118.56"/>
<polygon fill="black" stroke="black" points="575.2,-119.85 574.62,-109.27 568.48,-117.9 575.2,-119.85"/>
</g>
<!-- Cyp2b10&#45;&gt;Slc30a10 -->
<g id="edge23" class="edge">
<title>Cyp2b10&#45;&gt;Slc30a10</title>
<path fill="none" stroke="black" d="M583.41,-503.74C587.57,-485.14 595.74,-455.12 609,-432 630.3,-394.86 639.99,-387.27 673,-360 738.65,-305.76 831.79,-268.19 886.35,-249.23"/>
<polygon fill="black" stroke="black" points="887.39,-252.23 895.73,-245.69 885.13,-245.61 887.39,-252.23"/>
</g>
<!-- Cyp2b10&#45;&gt;Slc39a1 -->
<g id="edge24" class="edge">
<title>Cyp2b10&#45;&gt;Slc39a1</title>
<path fill="none" stroke="black" d="M572.38,-503.82C559.93,-473 539.02,-407.16 564,-360 600.71,-290.68 692.31,-258.14 748.81,-244.21"/>
<polygon fill="black" stroke="black" points="749.34,-247.45 758.27,-241.75 747.74,-240.64 749.34,-247.45"/>
</g>
<!-- Cyp2b10&#45;&gt;Gpx4 -->
<g id="edge25" class="edge">
<title>Cyp2b10&#45;&gt;Gpx4</title>
<path fill="none" stroke="black" d="M625.24,-520.74C705.53,-519.12 877.43,-510.49 1015,-468 1048.24,-457.73 1125.4,-415.8 1154,-396 1193.33,-368.78 1209.84,-365.28 1234,-324 1244.88,-305.41 1249.84,-281.46 1252.11,-263.08"/>
<polygon fill="black" stroke="black" points="1255.69,-263.5 1253.22,-253.19 1248.72,-262.79 1255.69,-263.5"/>
</g>
<!-- Cyp2b10&#45;&gt;Slc30a7 -->
<g id="edge26" class="edge">
<title>Cyp2b10&#45;&gt;Slc30a7</title>
<path fill="none" stroke="black" d="M625.3,-520.91C733.62,-519.93 1015.74,-512.89 1246,-468 1334.81,-450.68 1435,-415.03 1488.81,-394.49"/>
<polygon fill="black" stroke="black" points="1489.86,-397.45 1497.93,-390.59 1487.34,-390.92 1489.86,-397.45"/>
</g>
<!-- Cyp2b10&#45;&gt;Cyb5 -->
<g id="edge27" class="edge">
<title>Cyp2b10&#45;&gt;Cyb5</title>
<path fill="none" stroke="black" d="M625.22,-521.14C715.8,-520.38 925.28,-513.37 1094,-468 1221.49,-433.72 1361.02,-359.13 1421.38,-324.87"/>
<polygon fill="black" stroke="black" points="1422.76,-327.53 1429.7,-319.53 1419.29,-321.46 1422.76,-327.53"/>
</g>
<!-- Cyp2b10&#45;&gt;Atg7KO -->
<g id="edge28" class="edge">
<title>Cyp2b10&#45;&gt;Atg7KO</title>
<path fill="none" stroke="black" d="M536.52,-516.75C467.61,-509.37 337.12,-492.58 298,-468 148.97,-374.35 144.64,-166.71 293,-72 354.57,-32.7 860.12,-22.09 1026.87,-19.65"/>
<polygon fill="black" stroke="black" points="1026.87,-23.14 1036.82,-19.49 1026.77,-16.14 1026.87,-23.14"/>
</g>
<!-- Slc39a7&#45;&gt;Aass -->
<g id="edge29" class="edge">
<title>Slc39a7&#45;&gt;Aass</title>
<path fill="none" stroke="black" d="M1031.12,-505.12C1021.73,-495.73 1009.7,-483.7 999.36,-473.36"/>
<polygon fill="black" stroke="black" points="1002.41,-471.46 992.86,-466.86 997.46,-476.41 1002.41,-471.46"/>
</g>
<!-- Slc39a7&#45;&gt;Hnf4a -->
<g id="edge30" class="edge">
<title>Slc39a7&#45;&gt;Hnf4a</title>
<path fill="none" stroke="black" d="M1013.93,-511.51C984.6,-502.41 941.08,-487.24 906,-468 882.62,-455.18 881.41,-444.77 858,-432 824.67,-413.82 783.81,-399.38 754.32,-390.19"/>
<polygon fill="black" stroke="black" points="755.59,-386.62 745,-387.05 753.55,-393.31 755.59,-386.62"/>
</g>
<!-- Slc39a7&#45;&gt;Mtf1 -->
<g id="edge31" class="edge">
<title>Slc39a7&#45;&gt;Mtf1</title>
<path fill="none" stroke="black" d="M1008.58,-516.39C963.95,-509.97 888.9,-495.84 830,-468 805.89,-456.6 806.63,-442.22 782,-432 678.31,-388.98 638.86,-430.4 532,-396 478.65,-378.82 421.92,-346.03 389.07,-325.41"/>
<polygon fill="black" stroke="black" points="391.38,-322.09 381.06,-319.68 387.62,-328 391.38,-322.09"/>
</g>
<!-- Slc39a7&#45;&gt;Wdr34 -->
<g id="edge32" class="edge">
<title>Slc39a7&#45;&gt;Wdr34</title>
<path fill="none" stroke="black" d="M1050.53,-503.85C1058.11,-466.99 1076.01,-379.92 1085.25,-334.96"/>
<polygon fill="black" stroke="black" points="1088.87,-335.73 1087.46,-325.23 1082.01,-334.32 1088.87,-335.73"/>
</g>
<!-- Slc39a7&#45;&gt;Mt1 -->
<g id="edge33" class="edge">
<title>Slc39a7&#45;&gt;Mt1</title>
<path fill="none" stroke="black" d="M1008.57,-516.18C912.07,-503.4 652.51,-464.84 446,-396 373.56,-371.85 338,-383.39 290,-324 276.17,-306.89 271.46,-282.13 270.05,-263.07"/>
<polygon fill="black" stroke="black" points="273.51,-263.16 269.54,-253.33 266.51,-263.49 273.51,-263.16"/>
</g>
<!-- Slc39a7&#45;&gt;Slc30a1 -->
<g id="edge34" class="edge">
<title>Slc39a7&#45;&gt;Slc30a1</title>
<path fill="none" stroke="black" d="M1009.06,-515.89C969.34,-509.31 906.17,-495.32 858,-468 837.76,-456.52 840.42,-443.14 820,-432 760.95,-399.79 734.31,-423.67 673,-396 546.08,-338.72 416.57,-232.04 363.27,-185.59"/>
<polygon fill="black" stroke="black" points="365.91,-182.37 356.09,-178.41 361.3,-187.64 365.91,-182.37"/>
</g>
<!-- Slc39a7&#45;&gt;Cyp2c50 -->
<g id="edge35" class="edge">
<title>Slc39a7&#45;&gt;Cyp2c50</title>
<path fill="none" stroke="black" d="M1077.52,-509.84C1099.16,-500.87 1127.96,-486.69 1149,-468 1245.78,-382.05 1374.94,-317.8 1295,-216 1213.68,-112.44 788.64,-94.66 635.26,-91.62"/>
<polygon fill="black" stroke="black" points="635.76,-88.11 625.7,-91.43 635.63,-95.11 635.76,-88.11"/>
</g>
<!-- Slc39a7&#45;&gt;Slc30a10 -->
<g id="edge36" class="edge">
<title>Slc39a7&#45;&gt;Slc30a10</title>
<path fill="none" stroke="black" d="M1063.06,-505.01C1101.43,-464.88 1191.34,-358.08 1137,-288 1118.39,-263.99 1038.61,-248.95 983.97,-241.27"/>
<polygon fill="black" stroke="black" points="984.79,-237.71 974.41,-239.83 983.84,-244.65 984.79,-237.71"/>
</g>
<!-- Slc39a7&#45;&gt;Slc39a1 -->
<g id="edge37" class="edge">
<title>Slc39a7&#45;&gt;Slc39a1</title>
<path fill="none" stroke="black" d="M1015.71,-510.49C992.73,-501.68 961.7,-487.42 939,-468 870.74,-409.61 825.25,-310.21 806.17,-262.35"/>
<polygon fill="black" stroke="black" points="809.09,-261.19 802.2,-253.14 802.57,-263.73 809.09,-261.19"/>
</g>
<!-- Slc39a7&#45;&gt;Gpx4 -->
<g id="edge38" class="edge">
<title>Slc39a7&#45;&gt;Gpx4</title>
<path fill="none" stroke="black" d="M1071.39,-507.29C1086.91,-497.71 1106.71,-483.84 1121,-468 1179.63,-403 1223.86,-307.87 1243.23,-261.87"/>
<polygon fill="black" stroke="black" points="1246.81,-263.38 1247.4,-252.8 1240.34,-260.7 1246.81,-263.38"/>
</g>
<!-- Slc39a7&#45;&gt;Slc30a7 -->
<g id="edge39" class="edge">
<title>Slc39a7&#45;&gt;Slc30a7</title>
<path fill="none" stroke="black" d="M1087.05,-519.65C1177.61,-516.01 1395.12,-503.69 1458,-468 1483.27,-453.66 1502.69,-426.21 1514.6,-405.57"/>
<polygon fill="black" stroke="black" points="1518.07,-407.51 1519.83,-397.07 1511.94,-404.14 1518.07,-407.51"/>
</g>
<!-- Slc39a7&#45;&gt;Cyb5 -->
<g id="edge40" class="edge">
<title>Slc39a7&#45;&gt;Cyb5</title>
<path fill="none" stroke="black" d="M1087.07,-519.42C1168.25,-515.52 1348.63,-503.06 1398,-468 1440.48,-437.83 1450.04,-372.59 1451.89,-335.08"/>
<polygon fill="black" stroke="black" points="1455.41,-335.51 1452.25,-325.4 1448.42,-335.28 1455.41,-335.51"/>
</g>
<!-- Slc39a7&#45;&gt;Atg7KO -->
<g id="edge41" class="edge">
<title>Slc39a7&#45;&gt;Atg7KO</title>
<path fill="none" stroke="black" d="M1086.91,-519.14C1181.86,-514.27 1418.67,-499.26 1491,-468 1589.83,-425.29 1672,-414.66 1672,-307 1672,-307 1672,-307 1672,-161 1672,-50.65 1278.14,-25.84 1132.93,-20.45"/>
<polygon fill="black" stroke="black" points="1133.22,-16.92 1123.1,-20.06 1132.97,-23.92 1133.22,-16.92"/>
</g>
<!-- Aass&#45;&gt;Hnf4a -->
<g id="edge42" class="edge">
<title>Aass&#45;&gt;Hnf4a</title>
<path fill="none" stroke="black" d="M950.44,-441.9C904.31,-429.58 809.16,-404.16 755,-389.69"/>
<polygon fill="black" stroke="black" points="755.99,-386.06 745.43,-386.86 754.18,-392.82 755.99,-386.06"/>
</g>
<!-- Aass&#45;&gt;Mtf1 -->
<g id="edge43" class="edge">
<title>Aass&#45;&gt;Mtf1</title>
<path fill="none" stroke="black" d="M948.72,-445.09C894.76,-437.39 773.52,-419.03 673,-396 571.64,-372.78 454.23,-336.77 396.62,-318.49"/>
<polygon fill="black" stroke="black" points="397.83,-314.88 387.24,-315.18 395.71,-321.55 397.83,-314.88"/>
</g>
<!-- Aass&#45;&gt;Wdr34 -->
<g id="edge44" class="edge">
<title>Aass&#45;&gt;Wdr34</title>
<path fill="none" stroke="black" d="M984.45,-432.15C993.23,-413.37 1009.05,-382.69 1028,-360 1037.93,-348.11 1050.74,-336.79 1062.22,-327.69"/>
<polygon fill="black" stroke="black" points="1063.88,-330.06 1069.66,-321.18 1059.6,-324.51 1063.88,-330.06"/>
</g>
<!-- Aass&#45;&gt;Mt1 -->
<g id="edge45" class="edge">
<title>Aass&#45;&gt;Mt1</title>
<path fill="none" stroke="black" d="M948,-446.36C862.43,-438.45 612.01,-414.33 532,-396 508.06,-390.52 342.06,-339.5 323,-324 302.89,-307.65 288.63,-281.51 280,-261.78"/>
<polygon fill="black" stroke="black" points="282.95,-260.75 275.89,-252.85 276.49,-263.43 282.95,-260.75"/>
</g>
<!-- Aass&#45;&gt;Slc30a1 -->
<g id="edge46" class="edge">
<title>Aass&#45;&gt;Slc30a1</title>
<path fill="none" stroke="black" d="M980.54,-431.82C990.08,-383.37 1013.73,-247.18 985,-216 944.9,-172.48 535.11,-164.7 389.22,-163.3"/>
<polygon fill="black" stroke="black" points="389.4,-159.8 379.37,-163.21 389.34,-166.8 389.4,-159.8"/>
</g>
<!-- Aass&#45;&gt;Cyp2c50 -->
<g id="edge47" class="edge">
<title>Aass&#45;&gt;Cyp2c50</title>
<path fill="none" stroke="black" d="M991.48,-434.01C1014.52,-410.24 1057.77,-365.96 1066,-360 1094.64,-339.23 1118.48,-354.15 1137,-324 1145.37,-310.37 1143.42,-302.66 1137,-288 1093.36,-188.32 1041.46,-180.65 939,-144 835.88,-107.12 707.28,-95.89 635.35,-92.48"/>
<polygon fill="black" stroke="black" points="635.87,-88.95 625.73,-92.01 635.57,-95.95 635.87,-88.95"/>
</g>
<!-- Aass&#45;&gt;Slc30a10 -->
<g id="edge48" class="edge">
<title>Aass&#45;&gt;Slc30a10</title>
<path fill="none" stroke="black" d="M967.75,-432.81C962.31,-422.58 955.78,-408.89 952,-396 938.72,-350.71 933.83,-295.79 932.03,-263.21"/>
<polygon fill="black" stroke="black" points="935.48,-263.1 931.5,-253.28 928.49,-263.44 935.48,-263.1"/>
</g>
<!-- Aass&#45;&gt;Slc39a1 -->
<g id="edge49" class="edge">
<title>Aass&#45;&gt;Slc39a1</title>
<path fill="none" stroke="black" d="M963.98,-433.61C932.9,-396.86 854.16,-303.76 816.58,-259.33"/>
<polygon fill="black" stroke="black" points="818.76,-257.5 809.63,-252.12 813.42,-262.02 818.76,-257.5"/>
</g>
<!-- Aass&#45;&gt;Gpx4 -->
<g id="edge50" class="edge">
<title>Aass&#45;&gt;Gpx4</title>
<path fill="none" stroke="black" d="M1002.73,-441.33C1049.52,-426.18 1149.13,-388.18 1208,-324 1224.49,-306.02 1236.72,-281.03 1244.41,-262.1"/>
<polygon fill="black" stroke="black" points="1247.96,-263.62 1248.31,-253.03 1241.43,-261.09 1247.96,-263.62"/>
</g>
<!-- Aass&#45;&gt;Slc30a7 -->
<g id="edge51" class="edge">
<title>Aass&#45;&gt;Slc30a7</title>
<path fill="none" stroke="black" d="M1005.46,-445.38C1094.29,-434.1 1367.11,-399.44 1479.18,-385.2"/>
<polygon fill="black" stroke="black" points="1479.34,-388.58 1488.82,-383.85 1478.46,-381.64 1479.34,-388.58"/>
</g>
<!-- Aass&#45;&gt;Cyb5 -->
<g id="edge52" class="edge">
<title>Aass&#45;&gt;Cyb5</title>
<path fill="none" stroke="black" d="M1003.63,-442.03C1040.94,-432.18 1110.84,-413.45 1170,-396 1258.22,-369.98 1361.07,-336.79 1414.87,-319.21"/>
<polygon fill="black" stroke="black" points="1415.86,-322.24 1424.27,-315.8 1413.68,-315.59 1415.86,-322.24"/>
</g>
<!-- Aass&#45;&gt;Atg7KO -->
<g id="edge53" class="edge">
<title>Aass&#45;&gt;Atg7KO</title>
<path fill="none" stroke="black" d="M997.4,-436.92C1014.65,-426.53 1039.85,-410.89 1061,-396 1071.61,-388.53 1144.95,-334.18 1153,-324 1180.02,-289.84 1194,-278.55 1194,-235 1194,-235 1194,-235 1194,-161 1194,-108.18 1145.45,-63.82 1111.71,-39.38"/>
<polygon fill="black" stroke="black" points="1114.27,-36.19 1104.07,-33.31 1110.24,-41.92 1114.27,-36.19"/>
</g>
<!-- Hnf4a&#45;&gt;Mtf1 -->
<g id="edge54" class="edge">
<title>Hnf4a&#45;&gt;Mtf1</title>
<path fill="none" stroke="black" d="M684.32,-370.84C668.16,-367.6 648.01,-363.57 630,-360 547.57,-343.64 450.9,-324.64 398.83,-314.42"/>
<polygon fill="black" stroke="black" points="399.6,-310.81 389.11,-312.32 398.25,-317.68 399.6,-310.81"/>
</g>
<!-- Hnf4a&#45;&gt;Wdr34 -->
<g id="edge55" class="edge">
<title>Hnf4a&#45;&gt;Wdr34</title>
<path fill="none" stroke="black" d="M746.01,-371.34C798.66,-361.71 908.88,-341.49 1002,-324 1016.54,-321.27 1032.4,-318.25 1046.66,-315.52"/>
<polygon fill="black" stroke="black" points="1047.04,-318.82 1056.2,-313.51 1045.72,-311.95 1047.04,-318.82"/>
</g>
<!-- Hnf4a&#45;&gt;Mt1 -->
<g id="edge56" class="edge">
<title>Hnf4a&#45;&gt;Mt1</title>
<path fill="none" stroke="black" d="M686.83,-368.01C608.76,-343.1 389.84,-273.24 304.59,-246.04"/>
<polygon fill="black" stroke="black" points="305.76,-242.42 295.17,-242.71 303.63,-249.09 305.76,-242.42"/>
</g>
<!-- Hnf4a&#45;&gt;Slc30a1 -->
<g id="edge57" class="edge">
<title>Hnf4a&#45;&gt;Slc30a1</title>
<path fill="none" stroke="black" d="M694.12,-363.83C677.29,-353.17 653.05,-337.73 632,-324 559.53,-276.71 546.56,-256.34 470,-216 440.78,-200.6 406.06,-186.83 379.57,-177.18"/>
<polygon fill="black" stroke="black" points="381.08,-173.65 370.48,-173.57 378.71,-180.24 381.08,-173.65"/>
</g>
<!-- Hnf4a&#45;&gt;Cyp2c50 -->
<g id="edge58" class="edge">
<title>Hnf4a&#45;&gt;Cyp2c50</title>
<path fill="none" stroke="black" d="M707.16,-360.39C684.7,-312.81 620.01,-175.76 592.56,-117.6"/>
<polygon fill="black" stroke="black" points="595.47,-116.57 588.03,-109.02 589.14,-119.56 595.47,-116.57"/>
</g>
<!-- Hnf4a&#45;&gt;Slc30a10 -->
<g id="edge59" class="edge">
<title>Hnf4a&#45;&gt;Slc30a10</title>
<path fill="none" stroke="black" d="M735.32,-363.64C773.07,-338.83 854.25,-285.45 899.29,-255.85"/>
<polygon fill="black" stroke="black" points="900.88,-258.33 907.32,-249.91 897.04,-252.48 900.88,-258.33"/>
</g>
<!-- Hnf4a&#45;&gt;Slc39a1 -->
<g id="edge60" class="edge">
<title>Hnf4a&#45;&gt;Slc39a1</title>
<path fill="none" stroke="black" d="M724.45,-360.43C738.34,-336.09 764.4,-290.4 780.94,-261.4"/>
<polygon fill="black" stroke="black" points="784.44,-263.32 786.36,-252.9 778.36,-259.85 784.44,-263.32"/>
</g>
<!-- Hnf4a&#45;&gt;Gpx4 -->
<g id="edge61" class="edge">
<title>Hnf4a&#45;&gt;Gpx4</title>
<path fill="none" stroke="black" d="M744.1,-368.99C801.54,-353.22 933.63,-317.14 1045,-288 1104.01,-272.56 1172.57,-255.31 1214.62,-244.8"/>
<polygon fill="black" stroke="black" points="1215.37,-247.97 1224.23,-242.15 1213.68,-241.18 1215.37,-247.97"/>
</g>
<!-- Hnf4a&#45;&gt;Atg7KO -->
<g id="edge62" class="edge">
<title>Hnf4a&#45;&gt;Atg7KO</title>
<path fill="none" stroke="black" d="M714.06,-359.72C713.21,-328.18 715.53,-260.41 747,-216 819.36,-113.87 962.8,-56.04 1035.52,-32.14"/>
<polygon fill="black" stroke="black" points="1036.27,-35.25 1044.72,-28.85 1034.12,-28.59 1036.27,-35.25"/>
</g>
<!-- Mtf1&#45;&gt;Mt1 -->
<g id="edge63" class="edge">
<title>Mtf1&#45;&gt;Mt1</title>
<path fill="none" stroke="black" d="M343.45,-291.5C329.9,-281.08 310.94,-266.49 295.67,-254.75"/>
<polygon fill="black" stroke="black" points="298.24,-251.54 288.18,-248.22 293.98,-257.09 298.24,-251.54"/>
</g>
<!-- Mtf1&#45;&gt;Slc30a1 -->
<g id="edge64" class="edge">
<title>Mtf1&#45;&gt;Slc30a1</title>
<path fill="none" stroke="black" d="M358.18,-287.59C354.26,-263.4 347.13,-219.36 342.48,-190.65"/>
<polygon fill="black" stroke="black" points="345.83,-190.42 340.77,-181.11 338.92,-191.54 345.83,-190.42"/>
</g>
<!-- Mtf1&#45;&gt;Cyp2c50 -->
<g id="edge65" class="edge">
<title>Mtf1&#45;&gt;Cyp2c50</title>
<path fill="none" stroke="black" d="M369.84,-288.5C387.34,-257.05 429.16,-187.77 480,-144 497.42,-129 519.8,-116.65 538.97,-107.65"/>
<polygon fill="black" stroke="black" points="540.28,-110.44 547.94,-103.12 537.39,-104.07 540.28,-110.44"/>
</g>
<!-- Mtf1&#45;&gt;Atg7KO -->
<g id="edge66" class="edge">
<title>Mtf1&#45;&gt;Atg7KO</title>
<path fill="none" stroke="black" d="M367.19,-287.99C384.39,-243.45 437.43,-123.3 526,-72 610.22,-23.22 904.98,-18.39 1026.75,-18.55"/>
<polygon fill="black" stroke="black" points="1026.62,-22.05 1036.63,-18.58 1026.64,-15.05 1026.62,-22.05"/>
</g>
<!-- Wdr34&#45;&gt;Cyp2c50 -->
<g id="edge67" class="edge">
<title>Wdr34&#45;&gt;Cyp2c50</title>
<path fill="none" stroke="black" d="M1083.55,-287.89C1073.88,-267.69 1055.11,-234.52 1029,-216 906.25,-128.93 724.86,-102.4 634.83,-94.4"/>
<polygon fill="black" stroke="black" points="635.31,-90.84 625.05,-93.49 634.72,-97.82 635.31,-90.84"/>
</g>
<!-- Wdr34&#45;&gt;Slc30a10 -->
<g id="edge68" class="edge">
<title>Wdr34&#45;&gt;Slc30a10</title>
<path fill="none" stroke="black" d="M1064.22,-293.28C1038.6,-282.07 999.64,-265.03 970.46,-252.26"/>
<polygon fill="black" stroke="black" points="972.15,-248.75 961.59,-247.94 969.35,-255.16 972.15,-248.75"/>
</g>
<!-- Wdr34&#45;&gt;Slc39a1 -->
<g id="edge69" class="edge">
<title>Wdr34&#45;&gt;Slc39a1</title>
<path fill="none" stroke="black" d="M1058.59,-297.31C1005.89,-284.8 901.49,-260.03 841.42,-245.78"/>
<polygon fill="black" stroke="black" points="842.28,-242.15 831.75,-243.24 840.67,-248.96 842.28,-242.15"/>
</g>
<!-- Wdr34&#45;&gt;Gpx4 -->
<g id="edge70" class="edge">
<title>Wdr34&#45;&gt;Gpx4</title>
<path fill="none" stroke="black" d="M1117.92,-293.44C1145.7,-281.51 1189.15,-262.85 1219.45,-249.84"/>
<polygon fill="black" stroke="black" points="1220.38,-252.82 1228.18,-245.66 1217.61,-246.39 1220.38,-252.82"/>
</g>
<!-- Wdr34&#45;&gt;Atg7KO -->
<g id="edge71" class="edge">
<title>Wdr34&#45;&gt;Atg7KO</title>
<path fill="none" stroke="black" d="M1092.89,-287.66C1096.77,-248.83 1104.39,-152.04 1094,-72 1092.9,-63.56 1090.87,-54.56 1088.68,-46.41"/>
<polygon fill="black" stroke="black" points="1091.8,-45.61 1085.68,-36.96 1085.08,-47.54 1091.8,-45.61"/>
</g>
<!-- Mt1&#45;&gt;Slc30a1 -->
<g id="edge72" class="edge">
<title>Mt1&#45;&gt;Slc30a1</title>
<path fill="none" stroke="black" d="M284.09,-218.5C293.02,-209.31 304.77,-197.2 315.03,-186.65"/>
<polygon fill="black" stroke="black" points="317.05,-189.56 321.51,-179.95 312.03,-184.68 317.05,-189.56"/>
</g>
<!-- Mt1&#45;&gt;Cyp2c50 -->
<g id="edge73" class="edge">
<title>Mt1&#45;&gt;Cyp2c50</title>
<path fill="none" stroke="black" d="M268.45,-215.59C267.69,-195.42 269.84,-162.59 289,-144 321.89,-112.09 450.35,-98.91 525.15,-93.86"/>
<polygon fill="black" stroke="black" points="525.02,-97.31 534.78,-93.17 524.57,-90.32 525.02,-97.31"/>
</g>
<!-- Mt1&#45;&gt;Atg7KO -->
<g id="edge74" class="edge">
<title>Mt1&#45;&gt;Atg7KO</title>
<path fill="none" stroke="black" d="M264.89,-216.09C260.23,-197.27 255.75,-166.54 268,-144 296.07,-92.33 323.28,-90.8 379,-72 499.03,-31.5 885.35,-21.83 1027.16,-19.62"/>
<polygon fill="black" stroke="black" points="1026.79,-23.11 1036.74,-19.47 1026.68,-16.12 1026.79,-23.11"/>
</g>
<!-- Slc30a1&#45;&gt;Cyp2c50 -->
<g id="edge75" class="edge">
<title>Slc30a1&#45;&gt;Cyp2c50</title>
<path fill="none" stroke="black" d="M369.93,-150.77C377.17,-148.5 384.84,-146.14 392,-144 440.12,-129.65 495.47,-114.17 533.59,-103.66"/>
<polygon fill="black" stroke="black" points="534.15,-106.86 542.87,-100.84 532.3,-100.11 534.15,-106.86"/>
</g>
<!-- Slc30a1&#45;&gt;Atg7KO -->
<g id="edge76" class="edge">
<title>Slc30a1&#45;&gt;Atg7KO</title>
<path fill="none" stroke="black" d="M349.43,-144.36C364.93,-123.33 394.77,-87.95 430,-72 536.09,-23.97 891.41,-18.91 1026.9,-18.77"/>
<polygon fill="black" stroke="black" points="1026.79,-22.27 1036.79,-18.77 1026.79,-15.27 1026.79,-22.27"/>
</g>
<!-- Cyp2c50&#45;&gt;Atg7KO -->
<g id="edge77" class="edge">
<title>Cyp2c50&#45;&gt;Atg7KO</title>
<path fill="none" stroke="black" d="M621.77,-83.15C713.19,-70.35 930.69,-39.9 1029.55,-26.06"/>
<polygon fill="black" stroke="black" points="1030.02,-29.39 1039.44,-24.54 1029.05,-22.46 1030.02,-29.39"/>
</g>
<!-- Gpx4&#45;&gt;Atg7KO -->
<g id="edge78" class="edge">
<title>Gpx4&#45;&gt;Atg7KO</title>
<path fill="none" stroke="black" d="M1253.78,-215.65C1252.45,-183.39 1245.15,-113.66 1208,-72 1187.58,-49.1 1155.73,-35.86 1128.91,-28.34"/>
<polygon fill="black" stroke="black" points="1130.09,-24.77 1119.53,-25.64 1128.32,-31.55 1130.09,-24.77"/>
</g>
<!-- Slc30a7&#45;&gt;Cyb5 -->
<g id="edge79" class="edge">
<title>Slc30a7&#45;&gt;Cyb5</title>
<path fill="none" stroke="black" d="M1511.13,-361.46C1500.79,-351.94 1487.38,-339.58 1475.94,-329.05"/>
<polygon fill="black" stroke="black" points="1478.77,-326.97 1469.04,-322.77 1474.02,-332.12 1478.77,-326.97"/>
</g>
<!-- Slc30a7&#45;&gt;Atg7KO -->
<g id="edge80" class="edge">
<title>Slc30a7&#45;&gt;Atg7KO</title>
<path fill="none" stroke="black" d="M1526.38,-359.53C1524.04,-332.75 1520,-279.94 1520,-235 1520,-235 1520,-235 1520,-161 1520,-80.13 1247.4,-38.59 1131.33,-24.57"/>
<polygon fill="black" stroke="black" points="1131.95,-21 1121.61,-23.3 1131.12,-27.95 1131.95,-21"/>
</g>
<!-- Cyb5&#45;&gt;Atg7KO -->
<g id="edge81" class="edge">
<title>Cyb5&#45;&gt;Atg7KO</title>
<path fill="none" stroke="black" d="M1441.18,-288.92C1412.3,-247.16 1328.98,-134.19 1233,-72 1200.78,-51.13 1159.4,-37.44 1127.8,-29.21"/>
<polygon fill="black" stroke="black" points="1129.03,-25.66 1118.48,-26.63 1127.33,-32.45 1129.03,-25.66"/>
</g>
</g>
</svg>
