<?xml version="1.0" encoding="UTF-8" standalone="no"?>
<!DOCTYPE svg PUBLIC "-//W3C//DTD SVG 1.1//EN"
 "http://www.w3.org/Graphics/SVG/1.1/DTD/svg11.dtd">
<!-- Generated by graphviz version 8.0.5 (20230430.1635)
 -->
<!-- Pages: 1 -->
<svg width="1566pt" height="548pt"
 viewBox="0.00 0.00 1566.00 548.00" xmlns="http://www.w3.org/2000/svg" xmlns:xlink="http://www.w3.org/1999/xlink">
<g id="graph0" class="graph" transform="scale(1 1) rotate(0) translate(4 544)">
<polygon fill="white" stroke="none" points="-4,4 -4,-544 1562,-544 1562,4 -4,4"/>
<!-- Acaa1a -->
<g id="node1" class="node">
<title>Acaa1a</title>
<ellipse fill="none" stroke="black" cx="892" cy="-522" rx="38.09" ry="18"/>
<text text-anchor="middle" x="892" y="-516.58" font-family="Times New Roman,serif" font-size="14.00">Acaa1a</text>
</g>
<!-- Cyp2b10 -->
<g id="node2" class="node">
<title>Cyp2b10</title>
<ellipse fill="none" stroke="black" cx="307" cy="-450" rx="45.08" ry="18"/>
<text text-anchor="middle" x="307" y="-444.57" font-family="Times New Roman,serif" font-size="14.00">Cyp2b10</text>
</g>
<!-- Acaa1a&#45;&gt;Cyp2b10 -->
<g id="edge1" class="edge">
<title>Acaa1a&#45;&gt;Cyp2b10</title>
<path fill="none" stroke="black" d="M854.03,-519.52C767,-515.62 546.69,-502.84 366,-468 361.34,-467.1 356.52,-466 351.73,-464.8"/>
<polygon fill="black" stroke="black" points="352.94,-461.23 342.38,-462.03 351.13,-467.99 352.94,-461.23"/>
</g>
<!-- Slc39a7 -->
<g id="node3" class="node">
<title>Slc39a7</title>
<ellipse fill="none" stroke="black" cx="858" cy="-450" rx="40.09" ry="18"/>
<text text-anchor="middle" x="858" y="-444.57" font-family="Times New Roman,serif" font-size="14.00">Slc39a7</text>
</g>
<!-- Acaa1a&#45;&gt;Slc39a7 -->
<g id="edge2" class="edge">
<title>Acaa1a&#45;&gt;Slc39a7</title>
<path fill="none" stroke="black" d="M883.77,-504.05C879.89,-496.06 875.16,-486.33 870.82,-477.4"/>
<polygon fill="black" stroke="black" points="873.67,-476.25 866.15,-468.79 867.38,-479.31 873.67,-476.25"/>
</g>
<!-- Aass -->
<g id="node4" class="node">
<title>Aass</title>
<ellipse fill="none" stroke="black" cx="915" cy="-378" rx="29.11" ry="18"/>
<text text-anchor="middle" x="915" y="-372.57" font-family="Times New Roman,serif" font-size="14.00">Aass</text>
</g>
<!-- Acaa1a&#45;&gt;Aass -->
<g id="edge3" class="edge">
<title>Acaa1a&#45;&gt;Aass</title>
<path fill="none" stroke="black" d="M897.68,-504.01C900.91,-493.7 904.74,-480.22 907,-468 910.73,-447.82 912.74,-424.74 913.81,-407.14"/>
<polygon fill="black" stroke="black" points="917.36,-407.36 914.4,-397.19 910.37,-406.99 917.36,-407.36"/>
</g>
<!-- Hnf4a -->
<g id="node5" class="node">
<title>Hnf4a</title>
<ellipse fill="none" stroke="black" cx="1033" cy="-306" rx="33.1" ry="18"/>
<text text-anchor="middle" x="1033" y="-300.57" font-family="Times New Roman,serif" font-size="14.00">Hnf4a</text>
</g>
<!-- Acaa1a&#45;&gt;Hnf4a -->
<g id="edge4" class="edge">
<title>Acaa1a&#45;&gt;Hnf4a</title>
<path fill="none" stroke="black" d="M917.15,-508.19C951.48,-489.1 1011.54,-449.61 1036,-396 1044.67,-376.99 1043.35,-353.24 1040.17,-335.06"/>
<polygon fill="black" stroke="black" points="1043.4,-334.38 1037.96,-325.28 1036.54,-335.78 1043.4,-334.38"/>
</g>
<!-- Mtf1 -->
<g id="node6" class="node">
<title>Mtf1</title>
<ellipse fill="none" stroke="black" cx="649" cy="-234" rx="28.61" ry="18"/>
<text text-anchor="middle" x="649" y="-228.57" font-family="Times New Roman,serif" font-size="14.00">Mtf1</text>
</g>
<!-- Acaa1a&#45;&gt;Mtf1 -->
<g id="edge5" class="edge">
<title>Acaa1a&#45;&gt;Mtf1</title>
<path fill="none" stroke="black" d="M853.53,-521.63C750.09,-520.91 469.09,-502.2 399,-324 393.14,-309.11 388.93,-300.43 399,-288 425.09,-255.81 546.2,-242.38 609.78,-237.47"/>
<polygon fill="black" stroke="black" points="609.86,-240.9 619.57,-236.67 609.35,-233.92 609.86,-240.9"/>
</g>
<!-- Wdr34 -->
<g id="node7" class="node">
<title>Wdr34</title>
<ellipse fill="none" stroke="black" cx="1265" cy="-234" rx="36.59" ry="18"/>
<text text-anchor="middle" x="1265" y="-228.57" font-family="Times New Roman,serif" font-size="14.00">Wdr34</text>
</g>
<!-- Acaa1a&#45;&gt;Wdr34 -->
<g id="edge6" class="edge">
<title>Acaa1a&#45;&gt;Wdr34</title>
<path fill="none" stroke="black" d="M930.03,-518.95C1027.68,-513.3 1281.31,-496.05 1306,-468 1357.94,-408.99 1309.3,-307.99 1281.44,-260.76"/>
<polygon fill="black" stroke="black" points="1284.03,-259.27 1275.86,-252.53 1278.04,-262.9 1284.03,-259.27"/>
</g>
<!-- Mt1 -->
<g id="node8" class="node">
<title>Mt1</title>
<ellipse fill="none" stroke="black" cx="575" cy="-162" rx="27" ry="18"/>
<text text-anchor="middle" x="575" y="-156.57" font-family="Times New Roman,serif" font-size="14.00">Mt1</text>
</g>
<!-- Acaa1a&#45;&gt;Mt1 -->
<g id="edge7" class="edge">
<title>Acaa1a&#45;&gt;Mt1</title>
<path fill="none" stroke="black" d="M853.68,-520.14C730.31,-517.04 344.59,-504.59 226,-468 151.93,-445.15 76,-456.52 76,-379 76,-379 76,-379 76,-305 76,-254.12 103.52,-240.71 148,-216 214.45,-179.09 445.1,-167.37 536.89,-164.12"/>
<polygon fill="black" stroke="black" points="536.75,-167.59 546.63,-163.75 536.52,-160.59 536.75,-167.59"/>
</g>
<!-- Slc30a1 -->
<g id="node9" class="node">
<title>Slc30a1</title>
<ellipse fill="none" stroke="black" cx="702" cy="-90" rx="40.09" ry="18"/>
<text text-anchor="middle" x="702" y="-84.58" font-family="Times New Roman,serif" font-size="14.00">Slc30a1</text>
</g>
<!-- Acaa1a&#45;&gt;Slc30a1 -->
<g id="edge8" class="edge">
<title>Acaa1a&#45;&gt;Slc30a1</title>
<path fill="none" stroke="black" d="M853.62,-520.44C703.58,-518 161.8,-506.54 96,-468 55.26,-444.14 38,-426.21 38,-379 38,-379 38,-379 38,-233 38,-169.07 91.67,-167.8 151,-144 241.08,-107.86 532.02,-95.76 650.79,-92.26"/>
<polygon fill="black" stroke="black" points="650.84,-95.73 660.73,-91.94 650.64,-88.73 650.84,-95.73"/>
</g>
<!-- Cyp2c50 -->
<g id="node10" class="node">
<title>Cyp2c50</title>
<ellipse fill="none" stroke="black" cx="858" cy="-18" rx="44.58" ry="18"/>
<text text-anchor="middle" x="858" y="-12.57" font-family="Times New Roman,serif" font-size="14.00">Cyp2c50</text>
</g>
<!-- Acaa1a&#45;&gt;Cyp2c50 -->
<g id="edge9" class="edge">
<title>Acaa1a&#45;&gt;Cyp2c50</title>
<path fill="none" stroke="black" d="M930.2,-521.07C1071.72,-520.31 1558,-508.31 1558,-379 1558,-379 1558,-379 1558,-161 1558,-29.78 1079.59,-18.47 913.78,-18.49"/>
<polygon fill="black" stroke="black" points="913.85,-14.99 903.85,-18.51 913.86,-21.99 913.85,-14.99"/>
</g>
<!-- Slc30a10 -->
<g id="node11" class="node">
<title>Slc30a10</title>
<ellipse fill="none" stroke="black" cx="953" cy="-162" rx="44.58" ry="18"/>
<text text-anchor="middle" x="953" y="-156.57" font-family="Times New Roman,serif" font-size="14.00">Slc30a10</text>
</g>
<!-- Acaa1a&#45;&gt;Slc30a10 -->
<g id="edge10" class="edge">
<title>Acaa1a&#45;&gt;Slc30a10</title>
<path fill="none" stroke="black" d="M924.99,-512.41C1009.44,-488.37 1232.27,-411.48 1311,-252 1318.08,-237.65 1321.45,-228.11 1311,-216 1301.13,-204.56 1104.01,-180.39 1006.58,-169.08"/>
<polygon fill="black" stroke="black" points="1007.11,-165.5 996.77,-167.83 1006.3,-172.46 1007.11,-165.5"/>
</g>
<!-- Slc39a1 -->
<g id="node12" class="node">
<title>Slc39a1</title>
<ellipse fill="none" stroke="black" cx="1154" cy="-162" rx="40.09" ry="18"/>
<text text-anchor="middle" x="1154" y="-156.57" font-family="Times New Roman,serif" font-size="14.00">Slc39a1</text>
</g>
<!-- Acaa1a&#45;&gt;Slc39a1 -->
<g id="edge11" class="edge">
<title>Acaa1a&#45;&gt;Slc39a1</title>
<path fill="none" stroke="black" d="M929.77,-519.01C1030.78,-513.34 1301.43,-495.69 1330,-468 1371.33,-427.94 1333.57,-221.57 1329,-216 1292.03,-171 1258.53,-197.55 1203,-180 1200.41,-179.18 1197.75,-178.32 1195.07,-177.43"/>
<polygon fill="black" stroke="black" points="1196.35,-173.84 1185.76,-173.96 1194.12,-180.47 1196.35,-173.84"/>
</g>
<!-- Gpx4 -->
<g id="node13" class="node">
<title>Gpx4</title>
<ellipse fill="none" stroke="black" cx="1244" cy="-162" rx="31.6" ry="18"/>
<text text-anchor="middle" x="1244" y="-156.57" font-family="Times New Roman,serif" font-size="14.00">Gpx4</text>
</g>
<!-- Acaa1a&#45;&gt;Gpx4 -->
<g id="edge12" class="edge">
<title>Acaa1a&#45;&gt;Gpx4</title>
<path fill="none" stroke="black" d="M930.14,-519.23C1034.98,-513.99 1321.79,-497.11 1352,-468 1432.66,-390.26 1413.03,-306.49 1347,-216 1331.55,-194.82 1305.13,-181.47 1282.91,-173.47"/>
<polygon fill="black" stroke="black" points="1284.33,-169.91 1273.74,-170.05 1282.1,-176.55 1284.33,-169.91"/>
</g>
<!-- Slc30a7 -->
<g id="node14" class="node">
<title>Slc30a7</title>
<ellipse fill="none" stroke="black" cx="448" cy="-306" rx="40.09" ry="18"/>
<text text-anchor="middle" x="448" y="-300.57" font-family="Times New Roman,serif" font-size="14.00">Slc30a7</text>
</g>
<!-- Acaa1a&#45;&gt;Slc30a7 -->
<g id="edge13" class="edge">
<title>Acaa1a&#45;&gt;Slc30a7</title>
<path fill="none" stroke="black" d="M854.33,-518.16C778.77,-510.69 606.68,-484.44 498,-396 478.4,-380.05 465.12,-354.25 457.2,-334.53"/>
<polygon fill="black" stroke="black" points="460.15,-333.42 453.35,-325.3 453.6,-335.89 460.15,-333.42"/>
</g>
<!-- Cyb5 -->
<g id="node15" class="node">
<title>Cyb5</title>
<ellipse fill="none" stroke="black" cx="448" cy="-234" rx="31.1" ry="18"/>
<text text-anchor="middle" x="448" y="-228.57" font-family="Times New Roman,serif" font-size="14.00">Cyb5</text>
</g>
<!-- Acaa1a&#45;&gt;Cyb5 -->
<g id="edge14" class="edge">
<title>Acaa1a&#45;&gt;Cyb5</title>
<path fill="none" stroke="black" d="M853.51,-520.77C721.62,-519.57 293.76,-512.28 253,-468 211.76,-423.19 208.42,-386.66 307,-288 333.95,-261.03 375.94,-247.59 407.1,-241.01"/>
<polygon fill="black" stroke="black" points="407.48,-244.31 416.62,-238.96 406.14,-237.44 407.48,-244.31"/>
</g>
<!-- Cyp2b10&#45;&gt;Aass -->
<g id="edge15" class="edge">
<title>Cyp2b10&#45;&gt;Aass</title>
<path fill="none" stroke="black" d="M349.75,-444.08C462.53,-431.09 766.87,-396.05 875.67,-383.53"/>
<polygon fill="black" stroke="black" points="875.93,-386.91 885.47,-382.29 875.13,-379.95 875.93,-386.91"/>
</g>
<!-- Cyp2b10&#45;&gt;Hnf4a -->
<g id="edge16" class="edge">
<title>Cyp2b10&#45;&gt;Hnf4a</title>
<path fill="none" stroke="black" d="M352.28,-449.57C481.13,-450.52 847.26,-448.42 953,-396 981.09,-382.08 1003.86,-353.65 1017.82,-332.65"/>
<polygon fill="black" stroke="black" points="1021.17,-334.91 1023.6,-324.6 1015.27,-331.14 1021.17,-334.91"/>
</g>
<!-- Cyp2b10&#45;&gt;Mtf1 -->
<g id="edge17" class="edge">
<title>Cyp2b10&#45;&gt;Mtf1</title>
<path fill="none" stroke="black" d="M311.04,-431.74C320.16,-394.24 343.33,-307.18 366,-288 384.49,-272.35 537.17,-250.02 610.27,-240.1"/>
<polygon fill="black" stroke="black" points="610.43,-243.47 619.87,-238.67 609.5,-236.53 610.43,-243.47"/>
</g>
<!-- Cyp2b10&#45;&gt;Wdr34 -->
<g id="edge18" class="edge">
<title>Cyp2b10&#45;&gt;Wdr34</title>
<path fill="none" stroke="black" d="M352.04,-447.56C483.97,-443.03 867.86,-427.42 989,-396 1007.58,-391.18 1130.1,-334.74 1146,-324 1165.28,-310.98 1165.75,-302.43 1184,-288 1199.5,-275.75 1217.86,-263.57 1233.17,-253.98"/>
<polygon fill="black" stroke="black" points="1234.59,-256.6 1241.26,-248.37 1230.91,-250.64 1234.59,-256.6"/>
</g>
<!-- Cyp2b10&#45;&gt;Mt1 -->
<g id="edge19" class="edge">
<title>Cyp2b10&#45;&gt;Mt1</title>
<path fill="none" stroke="black" d="M264.11,-444.08C233.92,-438.13 195.54,-424.99 176,-396 131.28,-329.67 123.29,-276.18 176,-216 199.64,-189.01 442.21,-171.21 537.17,-165.23"/>
<polygon fill="black" stroke="black" points="537.23,-168.67 546.99,-164.56 536.8,-161.68 537.23,-168.67"/>
</g>
<!-- Cyp2b10&#45;&gt;Slc30a1 -->
<g id="edge20" class="edge">
<title>Cyp2b10&#45;&gt;Slc30a1</title>
<path fill="none" stroke="black" d="M263.98,-443.95C229.83,-437.88 182.84,-424.64 152,-396 120.48,-366.73 114,-350.01 114,-307 114,-307 114,-307 114,-233 114,-122.84 508.86,-97.87 651.43,-92.44"/>
<polygon fill="black" stroke="black" points="651.18,-95.92 661.05,-92.06 650.93,-88.92 651.18,-95.92"/>
</g>
<!-- Cyp2b10&#45;&gt;Cyp2c50 -->
<g id="edge21" class="edge">
<title>Cyp2b10&#45;&gt;Cyp2c50</title>
<path fill="none" stroke="black" d="M261.7,-448.09C176.3,-443.73 0,-420.92 0,-307 0,-307 0,-307 0,-161 0,-79.26 614,-34.2 803.18,-22.25"/>
<polygon fill="black" stroke="black" points="803.21,-25.69 812.97,-21.58 802.78,-18.71 803.21,-25.69"/>
</g>
<!-- Cyp2b10&#45;&gt;Slc30a10 -->
<g id="edge22" class="edge">
<title>Cyp2b10&#45;&gt;Slc30a10</title>
<path fill="none" stroke="black" d="M284.2,-434C272.18,-424.66 258.59,-411.5 252,-396 220.7,-322.38 197.61,-274.66 252,-216 262.98,-204.16 734.9,-175.67 898.13,-166.16"/>
<polygon fill="black" stroke="black" points="898.11,-169.61 907.88,-165.53 897.7,-162.62 898.11,-169.61"/>
</g>
<!-- Cyp2b10&#45;&gt;Slc39a1 -->
<g id="edge23" class="edge">
<title>Cyp2b10&#45;&gt;Slc39a1</title>
<path fill="none" stroke="black" d="M301.71,-432C293.11,-400.9 279.65,-333.85 307,-288 335.24,-240.66 356.02,-234.37 408,-216 533.73,-171.57 874.16,-191.66 1007,-180 1039.65,-177.13 1076.26,-172.9 1104.78,-169.38"/>
<polygon fill="black" stroke="black" points="1105.19,-172.73 1114.68,-168.02 1104.32,-165.78 1105.19,-172.73"/>
</g>
<!-- Cyp2b10&#45;&gt;Gpx4 -->
<g id="edge24" class="edge">
<title>Cyp2b10&#45;&gt;Gpx4</title>
<path fill="none" stroke="black" d="M344.13,-439.3C467.56,-406.77 874.84,-296.95 1203,-180 1205.1,-179.25 1207.25,-178.46 1209.4,-177.63"/>
<polygon fill="black" stroke="black" points="1210.43,-180.59 1218.44,-173.66 1207.86,-174.09 1210.43,-180.59"/>
</g>
<!-- Cyp2b10&#45;&gt;Slc30a7 -->
<g id="edge25" class="edge">
<title>Cyp2b10&#45;&gt;Slc30a7</title>
<path fill="none" stroke="black" d="M323.17,-432.71C348.17,-407.54 396.27,-359.09 424.92,-330.25"/>
<polygon fill="black" stroke="black" points="426.88,-333.23 431.44,-323.67 421.91,-328.3 426.88,-333.23"/>
</g>
<!-- Cyp2b10&#45;&gt;Cyb5 -->
<g id="edge26" class="edge">
<title>Cyp2b10&#45;&gt;Cyb5</title>
<path fill="none" stroke="black" d="M304.17,-431.72C299.95,-399.87 295.66,-331.22 328,-288 346.95,-262.68 380.65,-249.23 407.52,-242.23"/>
<polygon fill="black" stroke="black" points="408.27,-245.41 417.18,-239.69 406.65,-238.6 408.27,-245.41"/>
</g>
<!-- Slc39a7&#45;&gt;Aass -->
<g id="edge27" class="edge">
<title>Slc39a7&#45;&gt;Aass</title>
<path fill="none" stroke="black" d="M871.22,-432.76C878.37,-423.98 887.34,-412.96 895.3,-403.19"/>
<polygon fill="black" stroke="black" points="898.64,-405.63 902.24,-395.67 893.22,-401.21 898.64,-405.63"/>
</g>
<!-- Slc39a7&#45;&gt;Hnf4a -->
<g id="edge28" class="edge">
<title>Slc39a7&#45;&gt;Hnf4a</title>
<path fill="none" stroke="black" d="M897.6,-446.08C932.95,-441.32 983.56,-428.81 1013,-396 1027.78,-379.52 1032.38,-354.5 1033.52,-335.19"/>
<polygon fill="black" stroke="black" points="1037.04,-335.4 1033.83,-325.3 1030.04,-335.19 1037.04,-335.4"/>
</g>
<!-- Slc39a7&#45;&gt;Mtf1 -->
<g id="edge29" class="edge">
<title>Slc39a7&#45;&gt;Mtf1</title>
<path fill="none" stroke="black" d="M830.52,-436.48C811.65,-427.04 786.73,-412.87 768,-396 722.64,-355.14 683.5,-294.55 663.4,-260.54"/>
<polygon fill="black" stroke="black" points="666.07,-259.18 658.02,-252.3 660.02,-262.7 666.07,-259.18"/>
</g>
<!-- Slc39a7&#45;&gt;Wdr34 -->
<g id="edge30" class="edge">
<title>Slc39a7&#45;&gt;Wdr34</title>
<path fill="none" stroke="black" d="M894.46,-441.9C958.31,-428.07 1092.29,-392.65 1184,-324 1208.4,-305.73 1231.3,-279.38 1246.48,-260.09"/>
<polygon fill="black" stroke="black" points="1249.75,-262.58 1253.09,-252.52 1244.21,-258.3 1249.75,-262.58"/>
</g>
<!-- Slc39a7&#45;&gt;Mt1 -->
<g id="edge31" class="edge">
<title>Slc39a7&#45;&gt;Mt1</title>
<path fill="none" stroke="black" d="M825.23,-439.09C798.74,-430.2 761.18,-415.54 732,-396 656.53,-345.46 627.44,-333.33 587,-252 577.62,-233.13 574.8,-209.37 574.23,-191.15"/>
<polygon fill="black" stroke="black" points="577.72,-191.32 574.12,-181.35 570.72,-191.38 577.72,-191.32"/>
</g>
<!-- Slc39a7&#45;&gt;Slc30a1 -->
<g id="edge32" class="edge">
<title>Slc39a7&#45;&gt;Slc30a1</title>
<path fill="none" stroke="black" d="M850.35,-432.06C831.25,-389.71 780.07,-275.74 739,-180 730.15,-159.37 720.41,-135.92 713.15,-118.27"/>
<polygon fill="black" stroke="black" points="716.02,-117.03 708.98,-109.11 709.54,-119.69 716.02,-117.03"/>
</g>
<!-- Slc39a7&#45;&gt;Cyp2c50 -->
<g id="edge33" class="edge">
<title>Slc39a7&#45;&gt;Cyp2c50</title>
<path fill="none" stroke="black" d="M898.42,-449.9C968.45,-450.03 1115.64,-443.93 1228,-396 1304.63,-363.32 1332.64,-333.88 1348,-252 1383.56,-62.44 1048.81,-27.06 913.34,-20.48"/>
<polygon fill="black" stroke="black" points="913.55,-16.95 903.4,-20 913.23,-23.94 913.55,-16.95"/>
</g>
<!-- Slc39a7&#45;&gt;Slc30a10 -->
<g id="edge34" class="edge">
<title>Slc39a7&#45;&gt;Slc30a10</title>
<path fill="none" stroke="black" d="M859.4,-431.77C863.16,-391.95 875.81,-291.21 912,-216 916.87,-205.89 923.89,-195.87 930.75,-187.31"/>
<polygon fill="black" stroke="black" points="934,-189.88 937.75,-179.97 928.64,-185.38 934,-189.88"/>
</g>
<!-- Slc39a7&#45;&gt;Slc39a1 -->
<g id="edge35" class="edge">
<title>Slc39a7&#45;&gt;Slc39a1</title>
<path fill="none" stroke="black" d="M896.76,-444.96C946.32,-438.83 1034.09,-424.72 1104,-396 1207.67,-353.42 1261.39,-352.49 1311,-252 1318.08,-237.65 1320.36,-228.98 1311,-216 1281.42,-174.95 1250.9,-196.29 1203,-180 1200.46,-179.14 1197.86,-178.25 1195.23,-177.34"/>
<polygon fill="black" stroke="black" points="1196.68,-173.8 1186.09,-173.85 1194.4,-180.42 1196.68,-173.8"/>
</g>
<!-- Slc39a7&#45;&gt;Gpx4 -->
<g id="edge36" class="edge">
<title>Slc39a7&#45;&gt;Gpx4</title>
<path fill="none" stroke="black" d="M898.35,-449.61C983.22,-448.59 1181.23,-433.83 1289,-324 1324.85,-287.46 1353.84,-260.76 1329,-216 1318.68,-197.4 1298.81,-184.47 1280.87,-176.04"/>
<polygon fill="black" stroke="black" points="1282.75,-172.61 1272.18,-171.82 1279.95,-179.02 1282.75,-172.61"/>
</g>
<!-- Slc39a7&#45;&gt;Slc30a7 -->
<g id="edge37" class="edge">
<title>Slc39a7&#45;&gt;Slc30a7</title>
<path fill="none" stroke="black" d="M817.96,-448.39C758.25,-446.11 643.52,-436.3 556,-396 522.1,-380.39 490,-351.47 469.74,-330.83"/>
<polygon fill="black" stroke="black" points="472.77,-328.89 463.32,-324.1 467.72,-333.74 472.77,-328.89"/>
</g>
<!-- Slc39a7&#45;&gt;Cyb5 -->
<g id="edge38" class="edge">
<title>Slc39a7&#45;&gt;Cyb5</title>
<path fill="none" stroke="black" d="M817.7,-448.65C763.44,-446.54 665.46,-436.78 594,-396 537.96,-364.02 540.46,-335.69 497,-288 488.08,-278.21 478.18,-267.48 469.62,-258.24"/>
<polygon fill="black" stroke="black" points="472.58,-256.2 463.21,-251.25 467.45,-260.96 472.58,-256.2"/>
</g>
<!-- Aass&#45;&gt;Hnf4a -->
<g id="edge39" class="edge">
<title>Aass&#45;&gt;Hnf4a</title>
<path fill="none" stroke="black" d="M935.55,-364.81C953.8,-353.99 980.72,-338.01 1001.65,-325.6"/>
<polygon fill="black" stroke="black" points="1003.27,-328.11 1010.08,-320 999.7,-322.09 1003.27,-328.11"/>
</g>
<!-- Aass&#45;&gt;Mtf1 -->
<g id="edge40" class="edge">
<title>Aass&#45;&gt;Mtf1</title>
<path fill="none" stroke="black" d="M892.25,-366.45C870.05,-356.04 835.43,-339.47 806,-324 761.08,-300.38 710.16,-271.02 678.8,-252.64"/>
<polygon fill="black" stroke="black" points="680.74,-249.13 670.35,-247.08 677.19,-255.17 680.74,-249.13"/>
</g>
<!-- Aass&#45;&gt;Wdr34 -->
<g id="edge41" class="edge">
<title>Aass&#45;&gt;Wdr34</title>
<path fill="none" stroke="black" d="M943.02,-372.71C981.65,-366.04 1052.77,-351.07 1108,-324 1131.94,-312.26 1133.24,-301.89 1156,-288 1179.1,-273.9 1206.51,-260.59 1228.06,-250.83"/>
<polygon fill="black" stroke="black" points="1229.11,-253.75 1236.82,-246.48 1226.26,-247.36 1229.11,-253.75"/>
</g>
<!-- Aass&#45;&gt;Mt1 -->
<g id="edge42" class="edge">
<title>Aass&#45;&gt;Mt1</title>
<path fill="none" stroke="black" d="M887.79,-370.96C852.28,-362.62 788.58,-346.07 737,-324 707.35,-311.31 632.22,-276.29 611,-252 595.69,-234.48 586.37,-209.6 581.07,-190.6"/>
<polygon fill="black" stroke="black" points="584.27,-190 578.39,-181.19 577.49,-191.75 584.27,-190"/>
</g>
<!-- Aass&#45;&gt;Slc30a1 -->
<g id="edge43" class="edge">
<title>Aass&#45;&gt;Slc30a1</title>
<path fill="none" stroke="black" d="M903.24,-361.22C868.06,-313.97 763.38,-173.42 720.57,-115.93"/>
<polygon fill="black" stroke="black" points="723.03,-114.37 714.25,-108.44 717.41,-118.55 723.03,-114.37"/>
</g>
<!-- Aass&#45;&gt;Cyp2c50 -->
<g id="edge44" class="edge">
<title>Aass&#45;&gt;Cyp2c50</title>
<path fill="none" stroke="black" d="M912.25,-359.73C903.11,-302.31 873.67,-117.42 862.42,-46.79"/>
<polygon fill="black" stroke="black" points="865.75,-46.42 860.72,-37.09 858.84,-47.52 865.75,-46.42"/>
</g>
<!-- Aass&#45;&gt;Slc30a10 -->
<g id="edge45" class="edge">
<title>Aass&#45;&gt;Slc30a10</title>
<path fill="none" stroke="black" d="M914.41,-359.76C913.37,-323.9 912,-242.43 920,-216 922.92,-206.35 928.07,-196.72 933.45,-188.36"/>
<polygon fill="black" stroke="black" points="936.74,-190.76 939.52,-180.54 930.97,-186.8 936.74,-190.76"/>
</g>
<!-- Aass&#45;&gt;Slc39a1 -->
<g id="edge46" class="edge">
<title>Aass&#45;&gt;Slc39a1</title>
<path fill="none" stroke="black" d="M926.74,-361.34C940.95,-342.85 966.09,-311.63 991,-288 1033.8,-247.39 1089.36,-207.06 1123.31,-183.61"/>
<polygon fill="black" stroke="black" points="1125.01,-186 1131.28,-177.46 1121.06,-180.23 1125.01,-186"/>
</g>
<!-- Aass&#45;&gt;Gpx4 -->
<g id="edge47" class="edge">
<title>Aass&#45;&gt;Gpx4</title>
<path fill="none" stroke="black" d="M942.9,-372.23C976.38,-365.53 1033.24,-351.03 1075,-324 1093.22,-312.21 1091.29,-301.85 1108,-288 1131.36,-268.64 1142.86,-271.62 1166,-252 1188.76,-232.7 1210.8,-206.65 1225.61,-187.73"/>
<polygon fill="black" stroke="black" points="1228.95,-190.13 1232.27,-180.07 1223.4,-185.86 1228.95,-190.13"/>
</g>
<!-- Aass&#45;&gt;Slc30a7 -->
<g id="edge48" class="edge">
<title>Aass&#45;&gt;Slc30a7</title>
<path fill="none" stroke="black" d="M886.84,-372.78C809.56,-361.19 593.48,-328.81 496.36,-314.25"/>
<polygon fill="black" stroke="black" points="497.08,-310.67 486.67,-312.65 496.04,-317.59 497.08,-310.67"/>
</g>
<!-- Aass&#45;&gt;Cyb5 -->
<g id="edge49" class="edge">
<title>Aass&#45;&gt;Cyb5</title>
<path fill="none" stroke="black" d="M887.61,-371.56C845.27,-362.92 761.56,-344.87 692,-324 616.31,-301.29 529.91,-267.96 482.93,-249.2"/>
<polygon fill="black" stroke="black" points="484.55,-245.68 473.97,-245.2 481.94,-252.18 484.55,-245.68"/>
</g>
<!-- Hnf4a&#45;&gt;Mtf1 -->
<g id="edge50" class="edge">
<title>Hnf4a&#45;&gt;Mtf1</title>
<path fill="none" stroke="black" d="M1001.9,-299.33C932.04,-286.6 762.87,-255.76 686.97,-241.92"/>
<polygon fill="black" stroke="black" points="687.93,-238.36 677.47,-240.01 686.68,-245.24 687.93,-238.36"/>
</g>
<!-- Hnf4a&#45;&gt;Wdr34 -->
<g id="edge51" class="edge">
<title>Hnf4a&#45;&gt;Wdr34</title>
<path fill="none" stroke="black" d="M1061.45,-296.42C1102.2,-284.12 1177.4,-261.43 1224.11,-247.34"/>
<polygon fill="black" stroke="black" points="1224.91,-250.45 1233.48,-244.21 1222.89,-243.75 1224.91,-250.45"/>
</g>
<!-- Hnf4a&#45;&gt;Mt1 -->
<g id="edge52" class="edge">
<title>Hnf4a&#45;&gt;Mt1</title>
<path fill="none" stroke="black" d="M1004.7,-296.22C924.65,-271.41 696.8,-200.76 609.56,-173.72"/>
<polygon fill="black" stroke="black" points="610.75,-170.11 600.16,-170.49 608.68,-176.8 610.75,-170.11"/>
</g>
<!-- Hnf4a&#45;&gt;Slc30a1 -->
<g id="edge53" class="edge">
<title>Hnf4a&#45;&gt;Slc30a1</title>
<path fill="none" stroke="black" d="M1036.03,-287.61C1040.68,-254.64 1045.41,-182.87 1007,-144 972.3,-108.88 830.33,-96.87 752.92,-92.89"/>
<polygon fill="black" stroke="black" points="753.15,-89.35 742.99,-92.36 752.81,-96.34 753.15,-89.35"/>
</g>
<!-- Hnf4a&#45;&gt;Cyp2c50 -->
<g id="edge54" class="edge">
<title>Hnf4a&#45;&gt;Cyp2c50</title>
<path fill="none" stroke="black" d="M1041.1,-288.26C1045.58,-278.05 1050.71,-264.58 1053,-252 1061.77,-203.89 1060.25,-183.92 1032,-144 997.04,-94.6 936.23,-57.5 896.55,-37.02"/>
<polygon fill="black" stroke="black" points="898.45,-33.55 887.95,-32.17 895.3,-39.8 898.45,-33.55"/>
</g>
<!-- Hnf4a&#45;&gt;Slc30a10 -->
<g id="edge55" class="edge">
<title>Hnf4a&#45;&gt;Slc30a10</title>
<path fill="none" stroke="black" d="M1024.68,-288.41C1015.55,-270.39 1000.27,-240.85 986,-216 980.82,-206.99 974.89,-197.29 969.5,-188.68"/>
<polygon fill="black" stroke="black" points="972.01,-187.11 963.71,-180.53 966.1,-190.85 972.01,-187.11"/>
</g>
<!-- Hnf4a&#45;&gt;Slc39a1 -->
<g id="edge56" class="edge">
<title>Hnf4a&#45;&gt;Slc39a1</title>
<path fill="none" stroke="black" d="M1053.64,-291.59C1067.77,-281.75 1086.35,-267.45 1100,-252 1116.76,-233.03 1131.34,-208.17 1141.12,-189.55"/>
<polygon fill="black" stroke="black" points="1144.6,-191.43 1146.03,-180.93 1138.37,-188.24 1144.6,-191.43"/>
</g>
<!-- Hnf4a&#45;&gt;Gpx4 -->
<g id="edge57" class="edge">
<title>Hnf4a&#45;&gt;Gpx4</title>
<path fill="none" stroke="black" d="M1056.31,-293C1075.66,-282.78 1103.68,-267.34 1127,-252 1159.71,-230.48 1195.23,-202.8 1218.45,-184.06"/>
<polygon fill="black" stroke="black" points="1220.15,-186.37 1225.71,-177.35 1215.74,-180.93 1220.15,-186.37"/>
</g>
<!-- Mtf1&#45;&gt;Mt1 -->
<g id="edge58" class="edge">
<title>Mtf1&#45;&gt;Mt1</title>
<path fill="none" stroke="black" d="M633.67,-218.5C623.38,-208.76 609.64,-195.77 598.04,-184.8"/>
<polygon fill="black" stroke="black" points="600.73,-182.58 591.06,-178.25 595.92,-187.66 600.73,-182.58"/>
</g>
<!-- Mtf1&#45;&gt;Slc30a1 -->
<g id="edge59" class="edge">
<title>Mtf1&#45;&gt;Slc30a1</title>
<path fill="none" stroke="black" d="M655.29,-216.15C664.33,-191.92 681.11,-146.96 691.91,-118.05"/>
<polygon fill="black" stroke="black" points="695.5,-119.42 695.72,-108.82 688.94,-116.97 695.5,-119.42"/>
</g>
<!-- Mtf1&#45;&gt;Cyp2c50 -->
<g id="edge60" class="edge">
<title>Mtf1&#45;&gt;Cyp2c50</title>
<path fill="none" stroke="black" d="M643.51,-216.22C634.21,-184.3 619.43,-114.25 653,-72 671.72,-48.44 750.34,-33.34 804.59,-25.51"/>
<polygon fill="black" stroke="black" points="805.01,-28.85 814.43,-24 804.04,-21.91 805.01,-28.85"/>
</g>
<!-- Wdr34&#45;&gt;Cyp2c50 -->
<g id="edge61" class="edge">
<title>Wdr34&#45;&gt;Cyp2c50</title>
<path fill="none" stroke="black" d="M1275.79,-216.47C1286.71,-197.43 1300.02,-165.96 1285,-144 1242.31,-81.57 1015.09,-41.51 910.62,-26.13"/>
<polygon fill="black" stroke="black" points="911.4,-22.56 901,-24.59 910.4,-29.49 911.4,-22.56"/>
</g>
<!-- Wdr34&#45;&gt;Slc30a10 -->
<g id="edge62" class="edge">
<title>Wdr34&#45;&gt;Slc30a10</title>
<path fill="none" stroke="black" d="M1232.2,-225.64C1177.26,-213.31 1066.33,-188.43 1002.07,-174.01"/>
<polygon fill="black" stroke="black" points="1002.93,-170.39 992.4,-171.62 1001.4,-177.22 1002.93,-170.39"/>
</g>
<!-- Wdr34&#45;&gt;Slc39a1 -->
<g id="edge63" class="edge">
<title>Wdr34&#45;&gt;Slc39a1</title>
<path fill="none" stroke="black" d="M1243.07,-219.17C1226.71,-208.86 1204.13,-194.61 1185.79,-183.05"/>
<polygon fill="black" stroke="black" points="1187.97,-179.66 1177.65,-177.28 1184.24,-185.58 1187.97,-179.66"/>
</g>
<!-- Wdr34&#45;&gt;Gpx4 -->
<g id="edge64" class="edge">
<title>Wdr34&#45;&gt;Gpx4</title>
<path fill="none" stroke="black" d="M1259.81,-215.7C1257.52,-208.07 1254.77,-198.92 1252.22,-190.4"/>
<polygon fill="black" stroke="black" points="1255.36,-189.68 1249.13,-181.1 1248.65,-191.69 1255.36,-189.68"/>
</g>
<!-- Mt1&#45;&gt;Slc30a1 -->
<g id="edge65" class="edge">
<title>Mt1&#45;&gt;Slc30a1</title>
<path fill="none" stroke="black" d="M595.4,-149.75C614.91,-139 644.7,-122.58 667.83,-109.83"/>
<polygon fill="black" stroke="black" points="669.22,-112.51 676.29,-104.62 665.84,-106.38 669.22,-112.51"/>
</g>
<!-- Mt1&#45;&gt;Cyp2c50 -->
<g id="edge66" class="edge">
<title>Mt1&#45;&gt;Cyp2c50</title>
<path fill="none" stroke="black" d="M578.14,-143.75C582.78,-123.43 593.46,-90.13 616,-72 644.57,-49.02 742.44,-33.14 804.62,-25.1"/>
<polygon fill="black" stroke="black" points="804.93,-28.46 814.41,-23.73 804.05,-21.51 804.93,-28.46"/>
</g>
<!-- Slc30a1&#45;&gt;Cyp2c50 -->
<g id="edge67" class="edge">
<title>Slc30a1&#45;&gt;Cyp2c50</title>
<path fill="none" stroke="black" d="M729.53,-76.65C754.38,-65.5 791.21,-48.97 819.07,-36.47"/>
<polygon fill="black" stroke="black" points="820.2,-39.35 827.89,-32.06 817.34,-32.96 820.2,-39.35"/>
</g>
<!-- Slc30a7&#45;&gt;Cyb5 -->
<g id="edge68" class="edge">
<title>Slc30a7&#45;&gt;Cyb5</title>
<path fill="none" stroke="black" d="M448,-287.7C448,-280.24 448,-271.32 448,-262.97"/>
<polygon fill="black" stroke="black" points="451.5,-263.1 448,-253.1 444.5,-263.1 451.5,-263.1"/>
</g>
</g>
</svg>
